<svg width="207" height="265" viewBox="0 0 207 265" fill="none" xmlns="http://www.w3.org/2000/svg">
<path d="M56.4903 253.708H54.4383L48.2643 244.366V253.708H46.2123V241.18H48.2643L54.4383 250.504V241.18H56.4903V253.708ZM63.487 253.87C62.551 253.87 61.705 253.66 60.949 253.24C60.193 252.808 59.599 252.208 59.167 251.44C58.735 250.66 58.519 249.76 58.519 248.74C58.519 247.732 58.741 246.838 59.185 246.058C59.629 245.278 60.235 244.678 61.003 244.258C61.771 243.838 62.629 243.628 63.577 243.628C64.525 243.628 65.383 243.838 66.151 244.258C66.919 244.678 67.525 245.278 67.969 246.058C68.413 246.838 68.635 247.732 68.635 248.74C68.635 249.748 68.407 250.642 67.951 251.422C67.495 252.202 66.871 252.808 66.079 253.24C65.299 253.66 64.435 253.87 63.487 253.87ZM63.487 252.088C64.015 252.088 64.507 251.962 64.963 251.71C65.431 251.458 65.809 251.08 66.097 250.576C66.385 250.072 66.529 249.46 66.529 248.74C66.529 248.02 66.391 247.414 66.115 246.922C65.839 246.418 65.473 246.04 65.017 245.788C64.561 245.536 64.069 245.41 63.541 245.41C63.013 245.41 62.521 245.536 62.065 245.788C61.621 246.04 61.267 246.418 61.003 246.922C60.739 247.414 60.607 248.02 60.607 248.74C60.607 249.808 60.877 250.636 61.417 251.224C61.969 251.8 62.659 252.088 63.487 252.088ZM84.0873 244.924C84.0873 245.56 83.9373 246.16 83.6373 246.724C83.3373 247.288 82.8573 247.75 82.1973 248.11C81.5373 248.458 80.6913 248.632 79.6593 248.632H77.3913V253.708H75.3393V241.198H79.6593C80.6193 241.198 81.4293 241.366 82.0893 241.702C82.7613 242.026 83.2593 242.47 83.5833 243.034C83.9193 243.598 84.0873 244.228 84.0873 244.924ZM79.6593 246.958C80.4393 246.958 81.0213 246.784 81.4053 246.436C81.7893 246.076 81.9813 245.572 81.9813 244.924C81.9813 243.556 81.2073 242.872 79.6593 242.872H77.3913V246.958H79.6593ZM86.8723 253.834C86.5003 253.834 86.1883 253.708 85.9363 253.456C85.6843 253.204 85.5583 252.892 85.5583 252.52C85.5583 252.148 85.6843 251.836 85.9363 251.584C86.1883 251.332 86.5003 251.206 86.8723 251.206C87.2323 251.206 87.5383 251.332 87.7903 251.584C88.0423 251.836 88.1683 252.148 88.1683 252.52C88.1683 252.892 88.0423 253.204 87.7903 253.456C87.5383 253.708 87.2323 253.834 86.8723 253.834ZM97.9281 251.152H92.6901L91.7901 253.708H89.6481L94.1301 241.18H96.5061L100.988 253.708H98.8281L97.9281 251.152ZM97.3521 249.478L95.3181 243.664L93.2661 249.478H97.3521ZM114.975 241.198V242.872H109.665V246.562H113.805V248.236H109.665V253.708H107.613V241.198H114.975ZM121.178 253.87C120.242 253.87 119.396 253.66 118.64 253.24C117.884 252.808 117.29 252.208 116.858 251.44C116.426 250.66 116.21 249.76 116.21 248.74C116.21 247.732 116.432 246.838 116.876 246.058C117.32 245.278 117.926 244.678 118.694 244.258C119.462 243.838 120.32 243.628 121.268 243.628C122.216 243.628 123.074 243.838 123.842 244.258C124.61 244.678 125.216 245.278 125.66 246.058C126.104 246.838 126.326 247.732 126.326 248.74C126.326 249.748 126.098 250.642 125.642 251.422C125.186 252.202 124.562 252.808 123.77 253.24C122.99 253.66 122.126 253.87 121.178 253.87ZM121.178 252.088C121.706 252.088 122.198 251.962 122.654 251.71C123.122 251.458 123.5 251.08 123.788 250.576C124.076 250.072 124.22 249.46 124.22 248.74C124.22 248.02 124.082 247.414 123.806 246.922C123.53 246.418 123.164 246.04 122.708 245.788C122.252 245.536 121.76 245.41 121.232 245.41C120.704 245.41 120.212 245.536 119.756 245.788C119.312 246.04 118.958 246.418 118.694 246.922C118.43 247.414 118.298 248.02 118.298 248.74C118.298 249.808 118.568 250.636 119.108 251.224C119.66 251.8 120.35 252.088 121.178 252.088ZM137.337 243.79V253.708H135.285V252.538C134.961 252.946 134.535 253.27 134.007 253.51C133.491 253.738 132.939 253.852 132.351 253.852C131.571 253.852 130.869 253.69 130.245 253.366C129.633 253.042 129.147 252.562 128.787 251.926C128.439 251.29 128.265 250.522 128.265 249.622V243.79H130.299V249.316C130.299 250.204 130.521 250.888 130.965 251.368C131.409 251.836 132.015 252.07 132.783 252.07C133.551 252.07 134.157 251.836 134.601 251.368C135.057 250.888 135.285 250.204 135.285 249.316V243.79H137.337ZM145.048 243.628C145.828 243.628 146.524 243.79 147.136 244.114C147.76 244.438 148.246 244.918 148.594 245.554C148.942 246.19 149.116 246.958 149.116 247.858V253.708H147.082V248.164C147.082 247.276 146.86 246.598 146.416 246.13C145.972 245.65 145.366 245.41 144.598 245.41C143.83 245.41 143.218 245.65 142.762 246.13C142.318 246.598 142.096 247.276 142.096 248.164V253.708H140.044V243.79H142.096V244.924C142.432 244.516 142.858 244.198 143.374 243.97C143.902 243.742 144.46 243.628 145.048 243.628ZM151.05 248.704C151.05 247.708 151.254 246.826 151.662 246.058C152.082 245.29 152.646 244.696 153.354 244.276C154.074 243.844 154.872 243.628 155.748 243.628C156.396 243.628 157.032 243.772 157.656 244.06C158.292 244.336 158.796 244.708 159.168 245.176V240.388H161.238V253.708H159.168V252.214C158.832 252.694 158.364 253.09 157.764 253.402C157.176 253.714 156.498 253.87 155.73 253.87C154.866 253.87 154.074 253.654 153.354 253.222C152.646 252.778 152.082 252.166 151.662 251.386C151.254 250.594 151.05 249.7 151.05 248.704ZM159.168 248.74C159.168 248.056 159.024 247.462 158.736 246.958C158.46 246.454 158.094 246.07 157.638 245.806C157.182 245.542 156.69 245.41 156.162 245.41C155.634 245.41 155.142 245.542 154.686 245.806C154.23 246.058 153.858 246.436 153.57 246.94C153.294 247.432 153.156 248.02 153.156 248.704C153.156 249.388 153.294 249.988 153.57 250.504C153.858 251.02 154.23 251.416 154.686 251.692C155.154 251.956 155.646 252.088 156.162 252.088C156.69 252.088 157.182 251.956 157.638 251.692C158.094 251.428 158.46 251.044 158.736 250.54C159.024 250.024 159.168 249.424 159.168 248.74Z" fill="white"/>
<g filter="url(#filter0_d_229_88)">
<path fill-rule="evenodd" clip-rule="evenodd" d="M87.0339 38.3968C87.0339 29.1798 94.5057 21.708 103.723 21.708C112.94 21.708 120.411 29.1798 120.411 38.3968V38.8615C139.857 45.7345 153.789 64.2797 153.789 86.0789V122.371H154.069C154.069 122.371 154.133 130.708 159.705 130.708C161.804 130.708 164.027 131.56 165.983 132.622C169.941 134.77 171.723 139.266 171.723 143.769C171.723 152.725 164.462 159.986 155.505 159.986H51.5745C42.8198 159.986 35.7227 152.889 35.7227 144.134C35.7227 139.429 37.7274 134.785 41.8891 132.59C43.873 131.543 46.0351 130.708 47.8852 130.708C50.8813 130.708 52.6921 127.666 53.6564 125.257V86.0789C53.6564 64.2797 67.5883 45.7345 87.0339 38.8615V38.3968ZM103.223 190.208C114.544 190.208 123.723 185.619 123.723 179.958C123.723 174.297 114.544 169.708 103.223 169.708C91.9008 169.708 82.7227 174.297 82.7227 179.958C82.7227 185.619 91.9008 190.208 103.223 190.208Z" fill="#484959" fill-opacity="0.5"/>
</g>
<g filter="url(#filter1_d_229_88)">
<circle cx="157.323" cy="162.308" r="17.6" fill="#484959"/>
</g>
<path d="M161.253 160.7L160.849 163.003C160.746 163.599 160.586 164.207 160.368 164.825C160.15 165.444 159.864 166.014 159.509 166.535C159.153 167.057 158.715 167.478 158.194 167.799C157.672 168.12 157.059 168.28 156.355 168.28C155.782 168.28 155.306 168.171 154.928 167.953C154.55 167.73 154.252 167.432 154.034 167.06C153.817 166.682 153.662 166.263 153.57 165.805C153.484 165.341 153.444 164.868 153.45 164.387C153.461 163.9 153.504 163.439 153.579 163.003L153.974 160.7C154.077 160.105 154.238 159.497 154.455 158.878C154.679 158.26 154.968 157.69 155.323 157.168C155.684 156.647 156.123 156.226 156.638 155.905C157.16 155.578 157.773 155.415 158.477 155.415C159.056 155.415 159.534 155.527 159.912 155.75C160.291 155.974 160.586 156.272 160.798 156.644C161.015 157.016 161.167 157.435 161.253 157.899C161.345 158.357 161.385 158.83 161.373 159.317C161.362 159.804 161.322 160.265 161.253 160.7ZM160.385 162.986L160.789 160.7C160.852 160.322 160.892 159.915 160.909 159.48C160.932 159.045 160.915 158.615 160.858 158.191C160.801 157.767 160.683 157.38 160.505 157.031C160.328 156.681 160.076 156.403 159.749 156.197C159.423 155.985 159.002 155.879 158.486 155.879C157.85 155.879 157.297 156.028 156.827 156.326C156.363 156.624 155.971 157.014 155.65 157.495C155.335 157.976 155.077 158.5 154.877 159.068C154.682 159.629 154.536 160.173 154.438 160.7L154.043 162.986C153.98 163.359 153.937 163.763 153.914 164.198C153.897 164.633 153.917 165.066 153.974 165.496C154.037 165.92 154.158 166.306 154.335 166.656C154.513 167.005 154.765 167.286 155.091 167.498C155.418 167.71 155.836 167.816 156.346 167.816C156.982 167.816 157.532 167.667 157.996 167.369C158.46 167.065 158.853 166.673 159.173 166.192C159.494 165.705 159.752 165.181 159.947 164.619C160.147 164.058 160.293 163.513 160.385 162.986Z" fill="#484959" fill-opacity="0.5"/>
<path fill-rule="evenodd" clip-rule="evenodd" d="M88.7227 111.22C88.7227 112.017 89.1976 112.735 89.9458 113.01C92.3543 113.895 97.9496 115.708 103.373 115.708C108.782 115.708 114.191 113.905 116.526 113.017C117.26 112.738 117.723 112.028 117.723 111.243C117.723 109.807 116.23 108.808 114.869 109.264C112.121 110.185 107.739 111.362 103.3 111.362C98.8246 111.362 94.3493 110.165 91.5612 109.242C90.2028 108.792 88.7227 109.789 88.7227 111.22Z" fill="#484959"/>
<path opacity="0.2" fill-rule="evenodd" clip-rule="evenodd" d="M80.7227 93.7444C80.7227 93.1749 80.945 92.6264 81.3773 92.2556C82.442 91.3423 84.6457 89.7083 86.7849 89.7083C88.9329 89.7083 91.081 91.3559 92.1046 92.267C92.5146 92.632 92.7227 93.1615 92.7227 93.7105C92.7227 95.6612 90.0729 96.7708 88.2006 96.2236C87.7284 96.0856 87.2424 96.0032 86.7546 96.0032C86.2398 96.0032 85.725 96.095 85.2252 96.2471C83.3524 96.817 80.7227 95.702 80.7227 93.7444Z" fill="white" fill-opacity="0.3"/>
<path opacity="0.2" fill-rule="evenodd" clip-rule="evenodd" d="M114.723 93.7444C114.723 93.1749 114.945 92.6264 115.377 92.2556C116.442 91.3423 118.646 89.7083 120.785 89.7083C122.933 89.7083 125.081 91.3559 126.105 92.267C126.515 92.632 126.723 93.1615 126.723 93.7105C126.723 95.6612 124.073 96.7708 122.201 96.2236C121.728 96.0856 121.242 96.0032 120.755 96.0032C120.24 96.0032 119.725 96.095 119.225 96.2471C117.352 96.817 114.723 95.702 114.723 93.7444Z" fill="white" fill-opacity="0.3"/>
<path opacity="0.1" d="M35.2759 59.1525C33.335 48.3835 41.9237 35.6478 51.9798 33" stroke="white" stroke-opacity="0.3" stroke-width="3" stroke-linecap="round" stroke-linejoin="round"/>
<path opacity="0.1" d="M19.3571 54.8539C16.8447 40.9136 27.9626 24.4275 40.98 21" stroke="white" stroke-opacity="0.3" stroke-width="3" stroke-linecap="round" stroke-linejoin="round"/>
<defs>
<filter id="filter0_d_229_88" x="0.722656" y="0.708008" width="206" height="238.5" filterUnits="userSpaceOnUse" color-interpolation-filters="sRGB">
<feFlood flood-opacity="0" result="BackgroundImageFix"/>
<feColorMatrix in="SourceAlpha" type="matrix" values="0 0 0 0 0 0 0 0 0 0 0 0 0 0 0 0 0 0 127 0" result="hardAlpha"/>
<feOffset dy="14"/>
<feGaussianBlur stdDeviation="17.5"/>
<feColorMatrix type="matrix" values="0 0 0 0 0.208044 0 0 0 0 0.283314 0 0 0 0 0.429427 0 0 0 0.057 0"/>
<feBlend mode="normal" in2="BackgroundImageFix" result="effect1_dropShadow_229_88"/>
<feBlend mode="normal" in="SourceGraphic" in2="effect1_dropShadow_229_88" result="shape"/>
</filter>
<filter id="filter1_d_229_88" x="131.723" y="138.708" width="51.2002" height="51.2" filterUnits="userSpaceOnUse" color-interpolation-filters="sRGB">
<feFlood flood-opacity="0" result="BackgroundImageFix"/>
<feColorMatrix in="SourceAlpha" type="matrix" values="0 0 0 0 0 0 0 0 0 0 0 0 0 0 0 0 0 0 127 0" result="hardAlpha"/>
<feOffset dy="2"/>
<feGaussianBlur stdDeviation="4"/>
<feColorMatrix type="matrix" values="0 0 0 0 0.337255 0 0 0 0 0.411765 0 0 0 0 1 0 0 0 0.15 0"/>
<feBlend mode="normal" in2="BackgroundImageFix" result="effect1_dropShadow_229_88"/>
<feBlend mode="normal" in="SourceGraphic" in2="effect1_dropShadow_229_88" result="shape"/>
</filter>
</defs>
</svg>
