<svg width="18" height="18" viewBox="0 0 18 18" fill="none" xmlns="http://www.w3.org/2000/svg">
<circle cx="9" cy="9" r="9" fill="#484959"/>
<path d="M11.4851 7.47568C11.4851 6.80989 11.2139 6.17138 10.731 5.7006C10.2482 5.22981 9.59326 4.96533 8.91041 4.96533C8.22755 4.96533 7.57266 5.22981 7.08981 5.7006C6.60696 6.17138 6.3357 6.80989 6.3357 7.47568C6.3357 10.4044 5.04834 11.724 5.04834 11.724H12.7725C12.7725 11.724 11.4851 10.4044 11.4851 7.47568Z" stroke="white" stroke-linecap="round" stroke-linejoin="round"/>
<path d="M9.87586 13.1724C9.77774 13.3192 9.6369 13.4411 9.46745 13.5258C9.298 13.6105 9.10589 13.6551 8.91034 13.6551C8.71479 13.6551 8.52268 13.6105 8.35323 13.5258C8.18378 13.4411 8.04294 13.3192 7.94482 13.1724" stroke="white" stroke-linecap="round" stroke-linejoin="round"/>
<path d="M11.8159 4.97217C12.4817 5.47391 12.7727 6.13952 12.8557 6.9042" stroke="white" stroke-linecap="round" stroke-linejoin="round"/>
<path d="M6.00512 4.97217C5.33929 5.47391 5.04832 6.13952 4.96533 6.9042" stroke="white" stroke-linecap="round" stroke-linejoin="round"/>
</svg>
