<svg width="20" height="18" viewBox="0 0 20 18" fill="none" xmlns="http://www.w3.org/2000/svg">
<path d="M10.1423 0.105957C8.7754 0.105957 8.70706 1.41069 8.70706 1.41069L3.04182 2.62802V3.58525L0.574219 9.674C0.574219 10.9166 1.11004 12.2835 3.44463 12.2835C5.77923 12.2835 6.31505 10.9166 6.31505 9.674L3.75177 3.58525H8.70706V15.7628H4.40144L2.48783 17.5024H17.7967L15.8831 15.7628H11.5775V3.58525H16.4763L13.9695 9.674C13.9695 10.9166 14.4792 12.2835 16.8399 12.2835C19.2006 12.2835 19.7103 10.9166 19.7103 9.674L17.2418 3.58525V2.59116L11.5775 1.41069C11.5775 1.41069 11.5091 0.105957 10.1423 0.105957ZM3.44463 4.803L5.5496 9.674H1.33966L3.44463 4.803ZM16.8399 4.803L18.9449 9.674H14.7349L16.8399 4.803Z" fill="white"/>
</svg>
