<svg width="18" height="18" viewBox="0 0 18 18" fill="none" xmlns="http://www.w3.org/2000/svg">
<path d="M5.79336 3.3789H6.95312C7.12709 3.3789 7.24306 3.26292 7.24306 3.08896V2.21914H11.3022V3.08896C11.3022 3.26292 11.4182 3.3789 11.5922 3.3789H12.7519C12.9259 3.3789 13.0419 3.26292 13.0419 3.08896V2.21914C13.0419 1.26233 12.259 0.479492 11.3022 0.479492H7.24306C6.28626 0.479492 5.50342 1.26233 5.50342 2.21914V3.08896C5.50342 3.26292 5.61939 3.3789 5.79336 3.3789Z" fill="white"/>
<path d="M16.231 5.11865H2.31386C1.35706 5.11865 0.574219 5.90149 0.574219 6.8583V16.1364C0.574219 17.0932 1.35706 17.8761 2.31386 17.8761H16.231C17.1878 17.8761 17.9707 17.0932 17.9707 16.1364V6.8583C17.9707 5.90149 17.1878 5.11865 16.231 5.11865Z" fill="white"/>
</svg>
