<svg width="18" height="18" viewBox="0 0 18 18" fill="none" xmlns="http://www.w3.org/2000/svg">
<circle cx="9" cy="9" r="9" fill="#484959"/>
<path d="M9.91034 8.03989C9.91034 8.42732 9.59627 8.7414 9.20883 8.7414C8.8214 8.7414 8.50732 8.42732 8.50732 8.03989C8.50732 7.65245 8.8214 7.33838 9.20883 7.33838C9.59627 7.33838 9.91034 7.65245 9.91034 8.03989Z" fill="white"/>
<path d="M12.0153 8.03989C12.0153 8.42732 11.7012 8.7414 11.3138 8.7414C10.9264 8.7414 10.6123 8.42732 10.6123 8.03989C10.6123 7.65245 10.9264 7.33838 11.3138 7.33838C11.7012 7.33838 12.0153 7.65245 12.0153 8.03989Z" fill="white"/>
<path d="M7.80585 8.03989C7.80585 8.42732 7.49177 8.7414 7.10434 8.7414C6.71691 8.7414 6.40283 8.42732 6.40283 8.03989C6.40283 7.65245 6.71691 7.33838 7.10434 7.33838C7.49177 7.33838 7.80585 7.65245 7.80585 8.03989Z" fill="white"/>
<path d="M13.4181 10.1444C13.4181 10.3925 13.3196 10.6304 13.1441 10.8058C12.9687 10.9812 12.7308 11.0797 12.4828 11.0797H6.87069L5 12.4828V5.93534C5 5.68728 5.09854 5.44937 5.27396 5.27396C5.44937 5.09854 5.68728 5 5.93534 5H12.4828C12.7308 5 12.9687 5.09854 13.1441 5.27396C13.3196 5.44937 13.4181 5.68728 13.4181 5.93534V10.1444Z" stroke="white" stroke-linecap="round" stroke-linejoin="round"/>
</svg>
