<svg width="19" height="19" viewBox="0 0 19 19" fill="none" xmlns="http://www.w3.org/2000/svg">
<path d="M18.8307 3.30956C18.8307 2.61184 18.265 2.04618 17.5673 2.04618H15.4309V0.935324C15.4309 0.650743 15.2001 0.419922 14.9155 0.419922H13.8023C13.5189 0.419922 13.2863 0.650743 13.2863 0.935324V2.04677H6.19222V0.935324C6.19222 0.650743 5.9614 0.419922 5.67682 0.419922H4.63783C4.35325 0.419922 4.12243 0.650743 4.12243 0.935324V2.04677H1.8376C1.13988 2.04677 0.574219 2.61243 0.574219 3.31015V7.81203H1.2398V17.5994C1.2398 18.3176 1.82123 18.8984 2.53882 18.8984H16.7936C17.5118 18.8984 18.0926 18.3176 18.0926 17.5994V7.81144H18.833L18.8307 3.30956ZM16.0223 15.4554C16.0223 16.1736 15.4414 16.7544 14.7232 16.7544H4.68224C3.96465 16.7544 3.38322 16.1736 3.38322 15.4554V7.81144H16.0217V15.4554H16.0223Z" fill="white"/>
<path d="M7.22643 9.21484H5.15723V11.3588H7.22643V9.21484Z" fill="white"/>
<path d="M10.7738 9.21484H8.70459V11.3588H10.7738V9.21484Z" fill="white"/>
<path d="M14.3217 9.21484H12.252V11.3588H14.3217V9.21484Z" fill="white"/>
<path d="M7.22643 12.9849H5.15723V15.1283H7.22643V12.9849Z" fill="white"/>
<path d="M10.7738 12.9849H8.70459V15.1283H10.7738V12.9849Z" fill="white"/>
<path d="M14.3217 12.9849H12.252V15.1283H14.3217V12.9849Z" fill="white"/>
</svg>
