<svg width="18" height="18" viewBox="0 0 18 18" fill="none" xmlns="http://www.w3.org/2000/svg">
<circle cx="9" cy="9" r="9" fill="#484959"/>
<path d="M9.5 4V14" stroke="white" stroke-linecap="round" stroke-linejoin="round"/>
<path d="M11.5833 5.6665H8.45833C8.07156 5.6665 7.70063 5.8421 7.42714 6.15466C7.15365 6.46722 7 6.89114 7 7.33317C7 7.7752 7.15365 8.19912 7.42714 8.51168C7.70063 8.82424 8.07156 8.99984 8.45833 8.99984H10.5417C10.9284 8.99984 11.2994 9.17543 11.5729 9.48799C11.8464 9.80055 12 10.2245 12 10.6665C12 11.1085 11.8464 11.5325 11.5729 11.845C11.2994 12.1576 10.9284 12.3332 10.5417 12.3332H7" stroke="white" stroke-linecap="round" stroke-linejoin="round"/>
</svg>
