<svg width="162" height="190" viewBox="0 0 162 190" fill="none" xmlns="http://www.w3.org/2000/svg">
<path d="M90.7222 92.2312C88.8077 78.1855 82.4802 66.1474 73.8883 58.2129C66.2078 51.1205 61.4825 41.3475 60.9135 30.9185C60.8539 29.8223 60.7485 28.7151 60.5965 27.5996C58.2944 10.7076 46.0776 -1.57565 33.3103 0.164224C20.543 1.9041 12.0593 17.0091 14.3613 33.9011C14.8317 37.3556 15.7178 40.6162 16.9379 43.603C20.8319 53.1363 21.1538 63.805 17.4467 73.4171C14.134 82.0069 12.8769 92.1141 14.312 102.644C16.4525 118.35 24.1111 131.547 34.2826 139.301C38.1301 142.234 41.4311 145.849 43.9707 149.962C48.1914 156.797 55.1016 160.877 62.2692 159.9C70.0018 158.846 75.8699 152.203 77.7063 143.57C78.745 138.685 80.7328 134.067 83.3997 129.84C89.6964 119.862 92.6579 106.432 90.7222 92.2312Z" fill="#484959" fill-opacity="0.5"/>
<path opacity="0.57" d="M40.2307 17.5264C43.4201 28.4627 46.2555 39.4936 48.9759 50.5532C49.6572 53.3181 50.294 56.0933 50.9397 58.8664L51.9079 63.0261L52.8412 67.194C53.4526 69.9754 54.1024 72.7478 54.6817 75.536L56.4216 83.8999C57.5103 89.4906 58.6462 95.0718 59.6316 100.682C60.128 103.487 60.6785 106.281 61.1181 109.096L62.4752 117.533C64.1706 128.798 65.5832 140.113 66.4213 151.476L65.9317 151.517L64.9813 143.039L64.7485 140.919L64.4623 138.806L63.8823 134.58L63.3106 130.354C63.123 128.946 62.8819 127.543 62.6704 126.138C62.2287 123.329 61.809 120.517 61.3488 117.711C59.4357 106.5 57.3734 95.3142 55.0809 84.1724C53.8922 78.6104 52.7508 73.0381 51.5231 67.4843L50.6138 63.3164L49.6696 59.1561C49.0417 56.3823 48.4138 53.6078 47.7578 50.8401C46.4931 45.2939 45.1894 39.7559 43.8398 34.2288C42.5197 28.6949 41.1468 23.1719 39.7568 17.6558L40.2307 17.5264Z" fill="white" fill-opacity="0.3"/>
<path d="M131.471 168.514H55.644C52.7696 168.514 50.4395 166.184 50.4395 163.31V63.3144C50.4395 60.44 52.7696 58.1099 55.644 58.1099H131.472C134.347 58.1099 136.677 60.44 136.677 63.3144V163.31C136.676 166.184 134.346 168.514 131.471 168.514Z" fill="#484959" fill-opacity="0.5"/>
<path d="M128.603 160.833H58.5817C57.7196 160.833 57.0205 160.134 57.0205 159.272V68.7526C57.0205 67.8905 57.7196 67.1914 58.5817 67.1914H128.603C129.465 67.1914 130.164 67.8905 130.164 68.7526V159.272C130.164 160.134 129.465 160.833 128.603 160.833Z" fill="#232D47"/>
<path d="M93.4704 50.2284C95.3639 50.2284 96.8988 48.6934 96.8988 46.8C96.8988 44.9065 95.3639 43.3716 93.4704 43.3716C91.5769 43.3716 90.042 44.9065 90.042 46.8C90.042 48.6934 91.5769 50.2284 93.4704 50.2284Z" fill="#232D47"/>
<path d="M115.621 102.146L71.5134 102.88C68.1562 102.936 65.4248 105.546 65.4248 108.71V136.488C65.4248 139.652 68.1562 142.107 71.5134 141.972L115.621 140.201C118.789 140.074 121.349 137.492 121.349 134.434V107.589C121.349 104.53 118.789 102.094 115.621 102.146Z" fill="white" fill-opacity="0.3"/>
<path d="M117.853 97.1228C116.517 97.1427 115.433 96.1115 115.433 94.8201V88.7405C115.433 82.6417 110.274 77.6946 103.888 77.713L89.5188 77.7548C82.968 77.774 77.5998 82.8669 77.5998 89.1082V95.3296C77.5998 96.6518 76.4625 97.7398 75.0574 97.761C73.6496 97.7822 72.5068 96.7243 72.5068 95.398V89.1575C72.5068 80.2492 80.1819 73.0015 89.5188 73.0015H103.888C112.96 73.0015 120.267 80.0411 120.267 88.6932V94.7544C120.266 96.043 119.186 97.103 117.853 97.1228Z" fill="white" fill-opacity="0.3"/>
<path d="M100.702 117.541C100.702 114.454 98.0067 112.03 94.731 112.253C91.8339 112.45 89.4381 114.77 89.282 117.54C89.1608 119.689 90.3419 121.547 92.1373 122.487C92.9014 122.887 93.2807 123.729 93.1322 124.562L91.873 131.629C91.7127 132.529 92.4358 133.32 93.3876 133.286L96.6242 133.17C97.5712 133.136 98.2895 132.297 98.1306 131.411L96.8721 124.41C96.7222 123.574 97.1563 122.745 97.9218 122.287C99.5877 121.292 100.702 119.526 100.702 117.541Z" fill="white"/>
<path d="M12.1157 189.037C12.1164 188.977 12.1123 188.915 12.0973 188.854C11.1825 185.227 6.64276 182.969 6.64276 182.969L4.84399 183.11C3.80938 186.307 3.9429 188.266 4.1086 189.14C4.1134 189.165 4.12093 189.188 4.12709 189.211C5.61088 189.343 8.66543 189.43 12.1157 189.037Z" fill="#232D47"/>
<path d="M4.12598 189.21C4.20609 189.502 4.42109 189.729 4.69703 189.787C6.80803 190.231 10.1632 189.874 11.5716 189.69C11.8825 189.649 12.1098 189.362 12.1146 189.037C8.66431 189.429 5.60977 189.343 4.12598 189.21Z" fill="#484959" fill-opacity="0.5"/>
<path d="M4.12012 180.43L4.88221 184.098C4.93836 184.367 5.14446 184.568 5.39439 184.592C5.70046 184.621 6.13662 184.638 6.57485 184.573C6.96788 184.516 7.24176 184.116 7.17192 183.687L6.64263 180.431H4.12012V180.43Z" fill="url(#paint0_linear_312_244)"/>
<path d="M19.9053 189.164C17.9183 189.108 16.8912 188.874 16.3599 188.657C16.3585 188.854 16.3599 189.056 16.366 189.264C16.3729 189.486 16.5379 189.664 16.7406 189.663L27.6489 189.593C27.9967 189.59 28.2001 189.187 28.0494 188.867C26.6197 188.986 22.9763 189.25 19.9053 189.164Z" fill="#484959" fill-opacity="0.5"/>
<path d="M28.0499 188.867C28.0369 188.839 28.0253 188.811 28.0068 188.785C27.0434 187.439 24.59 184.758 19.7415 183.596L17.4155 183.522C17.4155 183.522 16.3795 185.323 16.3604 188.657C16.8917 188.874 17.9195 189.108 19.9058 189.164C22.9768 189.25 26.6202 188.986 28.0499 188.867Z" fill="#232D47"/>
<path d="M16.8809 180.106C16.9178 180.277 17.4012 182.887 17.5889 183.899C17.6334 184.139 17.821 184.316 18.0435 184.328C18.442 184.351 19.0843 184.353 19.6362 184.203C19.934 184.122 20.1347 183.818 20.1134 183.481L19.8532 179.353L16.8809 180.106Z" fill="url(#paint1_linear_312_244)"/>
<path d="M15.1183 131.919C15.1183 131.919 18.318 153.906 20.6269 180.069C20.67 180.556 20.2818 180.98 19.8032 181.081C19.0979 181.229 18.0612 181.406 17.2026 181.381C16.7445 181.368 16.3611 181.029 16.2844 180.577C15.4976 175.964 9.88499 151.206 8.41147 145.757C8.41147 145.757 6.71952 168.903 7.26045 180.911C7.27415 181.21 7.05504 181.468 6.75855 181.503C6.308 181.555 5.58768 181.594 4.67084 181.497C4.323 181.46 4.04226 181.197 3.99227 180.851C3.43217 176.946 0.207135 153.708 0.34408 136.968C0.351612 136.023 1.45196 128.268 1.45196 128.268L15.1183 131.919Z" fill="#484959"/>
<path d="M16.3584 94.9453L16.787 106.45C18.0038 106.869 19.1623 107.194 20.2654 107.437C20.9556 105.216 22.475 102.49 23.7185 100.462C19.1473 98.8469 16.3584 94.9453 16.3584 94.9453Z" fill="#232D47"/>
<path d="M0.9697 133.186C0.641034 133.069 0.411653 132.771 0.375362 132.424C-0.0498498 128.295 -2.11018 102.701 10.8961 92.1715C10.8961 92.1715 11.6418 90.2201 17.7728 95.0172C23.9038 99.8144 20.6212 104.842 19.1532 111.777C17.377 120.169 14.2608 127.029 15.6392 132.194C15.7344 132.55 15.5467 132.924 15.201 133.051C10.4387 134.807 5.69496 134.865 0.9697 133.186Z" fill="#232D47"/>
<path d="M15.9692 84.5029C15.9651 84.8672 10.7715 92.2437 10.7715 92.2437C10.7715 92.2437 11.7034 94.0794 16.1541 95.5701L19.9954 87.6718L15.9692 84.5029Z" fill="url(#paint2_linear_312_244)"/>
<path d="M13.3968 109.744C13.3646 109.744 13.3311 109.735 13.3023 109.716C9.15359 106.912 7.20145 102.388 7.18228 102.343C7.14599 102.256 7.18638 102.158 7.27197 102.121C7.35825 102.085 7.45685 102.125 7.49314 102.21C7.51163 102.255 9.42748 106.69 13.4913 109.436C13.5687 109.488 13.5885 109.592 13.5365 109.67C13.5043 109.718 13.4509 109.744 13.3968 109.744Z" fill="url(#paint3_linear_312_244)"/>
<path d="M19.5761 103.473C19.5206 103.473 19.4665 103.445 19.4343 103.396C19.422 103.376 18.1546 101.403 15.7403 97.0803C14.998 95.7513 14.0223 94.9091 12.8405 94.5783C10.8836 94.0313 8.99714 95.0809 8.97865 95.0912C8.89717 95.1357 8.79515 95.109 8.74859 95.0282C8.70271 94.9474 8.73078 94.844 8.81158 94.7981C8.89306 94.7523 10.8329 93.6663 12.9281 94.2531C14.201 94.6085 15.2466 95.5041 16.0347 96.9153C18.4429 101.227 19.7055 103.194 19.7178 103.213C19.7685 103.291 19.7459 103.396 19.6672 103.445C19.6391 103.465 19.6076 103.473 19.5761 103.473Z" fill="url(#paint4_linear_312_244)"/>
<path d="M20.059 80.2754C20.059 80.2754 21.907 84.5207 22.031 86.7488C22.1549 88.9768 22.6349 90.4223 20.059 90.8715C17.483 91.32 15.3125 90.0368 14.1368 87.8176C14.1368 87.8176 12.2949 84.3974 12.7078 82.9972C13.1214 81.5955 20.059 80.2754 20.059 80.2754Z" fill="url(#paint5_linear_312_244)"/>
<path d="M15.0177 86.2209L15.1642 86.1565C15.3512 86.0743 15.4306 85.8518 15.3368 85.671C14.9732 84.9692 14.2652 83.3608 15.18 82.9855C16.3591 82.5021 21.0296 81.5497 22.0375 79.892C23.0057 78.2993 22.1477 76.2431 20.8584 75.6583C20.7721 75.6193 20.6701 75.6501 20.6263 75.7343L20.5188 75.9377C20.4455 76.0767 20.2394 76.0555 20.1956 75.9048C20.1538 75.7597 19.9607 75.7316 19.8806 75.8596C19.5711 76.3554 18.7344 77.1592 16.4981 77.5721C13.3196 78.1589 11.2189 79.4448 11.1662 81.6414C11.1627 81.7811 11.0141 81.8585 10.895 81.7859C10.6601 81.6428 10.2849 81.5757 9.78301 81.9975C8.90999 82.7315 9.26742 84.635 11.1805 86.201C11.2716 86.2756 11.2709 86.4174 11.1723 86.481C10.8252 86.707 10.3082 87.2438 11.6482 87.96C13.0341 88.7009 14.0687 88.64 14.4672 88.5742C14.5665 88.5578 14.6302 88.4619 14.6082 88.364L14.183 86.4338C14.1591 86.3242 14.2419 86.2209 14.3542 86.2209H15.0177V86.2209Z" fill="#232D47"/>
<path d="M15.0979 86.6283C15.0979 86.6283 14.3927 83.9168 13.1773 84.6769C11.9612 85.4369 13.8079 87.715 14.7857 87.817L15.0979 86.6283Z" fill="url(#paint6_linear_312_244)"/>
<path d="M39.0249 94.0803C39.0249 94.0803 38.0984 92.4383 38.1573 91.6399C38.2162 90.8422 37.7191 89.6707 38.2484 89.7569C38.7777 89.8439 38.8865 89.7727 39.0303 90.7299C39.1741 91.6879 40.8435 95.8701 39.0249 94.0803Z" fill="url(#paint7_linear_312_244)"/>
<path d="M39.1993 91.4692L39.178 94.7497C32.908 101.52 27.8329 101.918 23.7177 100.463C22.4736 102.491 20.9542 105.216 20.2646 107.438C37.0088 111.13 40.9515 95.7364 40.9515 95.7364C43.2193 94.797 43.6766 94.2472 43.5787 93.6316L39.1993 91.4692Z" fill="url(#paint8_linear_312_244)"/>
<path d="M44.0213 88.2149C43.4858 87.9978 42.4389 86.0012 42.2383 86.6578C42.0376 87.3145 42.3232 88.2149 42.2383 88.4942C42.1534 88.7736 40.8483 91.987 41.1085 92.7005C41.2968 93.2154 42.3334 93.1394 42.4916 93.9823C42.5443 94.2617 42.7675 94.4623 43.0271 94.463C43.2866 94.463 43.5098 94.263 43.5625 93.983C43.5837 93.8707 44.5567 88.4319 44.0213 88.2149Z" fill="url(#paint9_linear_312_244)"/>
<path d="M26.9315 81.3807C22.7034 89.7432 26.0551 99.9497 34.4176 104.178C41.2141 107.614 49.2295 106.044 54.2629 100.845L83.3177 115.535C83.8004 115.778 84.3742 115.759 84.8384 115.482L87.68 113.789C87.7287 113.76 87.7752 113.728 87.8197 113.695C87.8321 113.685 87.8444 113.676 87.8567 113.665C87.8896 113.639 87.9217 113.611 87.9519 113.583C87.9621 113.574 87.9724 113.564 87.9827 113.554C88.0203 113.516 88.0566 113.478 88.0895 113.437C88.0902 113.437 88.0909 113.436 88.0909 113.435C88.4476 113.001 88.5565 112.395 88.3381 111.847L86.0292 106.059C85.8868 105.702 85.6183 105.409 85.2746 105.235L82.3645 103.764L81.5942 105.287L79.0943 104.023L79.8646 102.5L77.5256 101.317L76.8169 102.718L73.7788 101.182L74.4875 99.7806L73.3557 99.2081L72.9907 99.9292L70.4435 98.6412L70.8085 97.9202L68.8276 96.9184L68.0573 98.4419L66.642 97.7264L67.4123 96.2029L66.1859 95.5825L65.4156 97.1054L62.963 95.8653L63.7333 94.3418L60.2857 92.5985L58.8094 91.8522C60.0125 84.7167 56.5259 77.3306 49.7293 73.894C41.3662 69.6665 31.1597 73.0182 26.9315 81.3807ZM36.8312 82.5359C38.5246 83.3918 39.2031 85.4589 38.3472 87.1523C37.4913 88.8456 35.4241 89.5241 33.7308 88.6682C32.0375 87.8123 31.3589 85.7452 32.2148 84.0518C33.0708 82.3585 35.1379 81.68 36.8312 82.5359Z" fill="#484959" fill-opacity="0.5"/>
<path d="M50.4829 86.5054L64.2561 93.469L63.4858 94.9925L65.9384 96.2325L66.7088 94.709L67.9351 95.3294L67.1648 96.8529L68.5801 97.5684L69.3504 96.0449L71.3313 97.0467L70.9664 97.7677L73.5135 99.0556L73.8785 98.3346L75.0103 98.907L74.3016 100.308L77.3397 101.844L78.0484 100.444L80.3874 101.626L79.6171 103.15L82.117 104.414L82.8874 102.89L85.7974 104.362C86.1412 104.535 86.4089 104.829 86.552 105.186L88.8609 110.974C89.1484 111.695 88.8691 112.519 88.2022 112.916L85.3606 114.609C84.8956 114.886 84.3218 114.906 83.8398 114.662L48.7656 96.9282L50.4829 86.5054Z" fill="#484959"/>
<path d="M34.941 103.305C43.3036 107.533 53.51 104.181 57.7382 95.8185C61.9663 87.456 58.6146 77.2495 50.2521 73.0214C41.8896 68.7932 31.6831 72.1449 27.455 80.5074C23.2268 88.87 26.5785 99.0764 34.941 103.305ZM34.2536 87.7949C32.5603 86.939 31.8817 84.8719 32.7376 83.1785C33.5935 81.4852 35.6607 80.8067 37.354 81.6626C39.0473 82.5185 39.7259 84.5857 38.87 86.279C38.0141 87.9723 35.9469 88.6508 34.2536 87.7949Z" fill="#484959"/>
<path d="M54.7856 99.9713L83.8404 114.661C84.3232 114.905 84.897 114.885 85.3612 114.609L88.2028 112.916C88.6314 112.661 88.8971 112.229 88.958 111.762C86.3095 108.893 61.1385 97.9014 60.197 95.6391C59.8622 94.8346 59.8047 93.6158 60.8085 91.7259L59.3322 90.9796C60.5353 83.8441 57.0487 76.458 50.2521 73.0214C41.8896 68.7932 31.6831 72.1449 27.455 80.5074C23.2268 88.87 26.5785 99.0764 34.941 103.305C41.7369 106.741 49.7523 105.17 54.7856 99.9713ZM37.3533 81.6633C39.0466 82.5192 39.7252 84.5863 38.8693 86.2797C38.0134 87.973 35.9462 88.6515 34.2529 87.7956C32.5596 86.9397 31.881 84.8725 32.7369 83.1792C33.5935 81.4852 35.66 80.8067 37.3533 81.6633Z" fill="white" fill-opacity="0.3"/>
<path d="M36.4427 100.333C43.164 103.731 51.3676 101.037 54.7659 94.3161C58.1642 87.5949 55.4705 79.3913 48.7492 75.993C42.028 72.5947 33.8244 75.2884 30.4261 82.0096C27.0278 88.7316 29.7215 96.9345 36.4427 100.333ZM34.253 87.7949C32.5597 86.939 31.8811 84.8718 32.737 83.1785C33.5929 81.4851 35.6601 80.8066 37.3534 81.6625C39.0467 82.5184 39.7253 84.5856 38.8694 86.2789C38.0135 87.9722 35.9463 88.6508 34.253 87.7949Z" fill="white"/>
<path d="M13.3965 109.744C13.3965 109.744 29.3745 115.093 38.3114 108.288C38.8661 107.867 39.5652 107.682 40.2526 107.794L43.6667 108.35C45.0998 108.584 46.4651 107.655 46.7739 106.236C46.9499 105.427 47.0348 104.542 46.8554 103.782L40.4101 103.393L40.5943 102.557C40.5943 102.557 37.7452 103.254 37.6884 105.482C37.6884 105.482 31.0055 109.86 18.8174 103.065C18.8174 103.065 14.0709 106.78 13.3965 109.744Z" fill="url(#paint10_linear_312_244)"/>
<g opacity="0.3">
<path d="M136.805 29.6391C136.433 29.6241 136.143 29.3098 136.159 28.938C136.189 28.2149 136.187 27.4802 136.155 26.7537C136.139 26.386 136.42 26.0745 136.786 26.0512C136.79 26.0512 136.795 26.0505 136.799 26.0505C137.17 26.0341 137.485 26.3223 137.502 26.6941C137.535 27.459 137.538 28.232 137.506 28.9934C137.492 29.3413 137.216 29.6165 136.876 29.6384C136.853 29.6398 136.829 29.6405 136.805 29.6391ZM135.756 23.2288C135.625 22.5139 135.462 21.7977 135.272 21.1C135.174 20.7412 135.385 20.37 135.745 20.2721C136.106 20.1749 136.475 20.3865 136.573 20.7453C136.773 21.4793 136.945 22.2332 137.082 22.9857C137.149 23.352 136.907 23.7033 136.541 23.7704C136.514 23.7752 136.487 23.7786 136.461 23.78C136.124 23.8012 135.817 23.5684 135.756 23.2288ZM134.104 17.7517C133.817 17.0854 133.499 16.424 133.157 15.7845C132.981 15.4565 133.105 15.0477 133.433 14.8717C133.761 14.6964 134.169 14.8197 134.345 15.1477C134.706 15.8208 135.041 16.5178 135.342 17.219C135.489 17.5613 135.331 17.9571 134.989 18.1043C134.916 18.1358 134.84 18.1529 134.766 18.1577C134.489 18.1769 134.219 18.0215 134.104 17.7517ZM131.268 12.782C130.84 12.1958 130.381 11.622 129.906 11.0749C129.661 10.7942 129.691 10.3683 129.971 10.1239C130.252 9.87943 130.678 9.90887 130.922 10.1896C131.424 10.7655 131.906 11.3694 132.357 11.9863C132.577 12.2869 132.511 12.7087 132.21 12.9285C132.103 13.0072 131.98 13.049 131.856 13.0572C131.634 13.0709 131.409 12.9751 131.268 12.782ZM127.396 8.56818C126.85 8.09299 126.275 7.63423 125.689 7.20559C125.388 6.9858 125.323 6.56401 125.543 6.26341C125.762 5.96282 126.184 5.89709 126.485 6.11757C127.102 6.5688 127.706 7.05084 128.281 7.55137C128.561 7.79582 128.592 8.22171 128.347 8.50245C128.224 8.64419 128.055 8.72156 127.882 8.73252C127.71 8.74279 127.535 8.68938 127.396 8.56818ZM122.688 5.31507C122.049 4.97203 121.388 4.65226 120.722 4.36468C120.38 4.21678 120.223 3.82033 120.371 3.47865C120.519 3.13697 120.915 2.97949 121.257 3.12739C121.957 3.43003 122.654 3.76692 123.326 4.12777C123.654 4.30374 123.777 4.71252 123.601 5.0405C123.486 5.25345 123.273 5.38012 123.049 5.3945C122.928 5.40203 122.803 5.37738 122.688 5.31507ZM97.6566 5.00147C97.4813 4.67281 97.6059 4.26471 97.9339 4.08942C98.607 3.73063 99.3047 3.39648 100.008 3.09589C100.35 2.94936 100.747 3.1089 100.893 3.45126C101.039 3.79362 100.88 4.18939 100.537 4.33592C99.8696 4.62076 99.2068 4.93848 98.568 5.27947C98.4803 5.32603 98.3872 5.35136 98.2941 5.35752C98.0387 5.37327 97.7846 5.24249 97.6566 5.00147ZM117.379 3.18833C116.681 2.99592 115.965 2.83159 115.253 2.70012C114.886 2.63233 114.645 2.28039 114.712 1.91475C114.78 1.54842 115.131 1.30877 115.498 1.3745C116.248 1.5135 117.001 1.68605 117.737 1.88873C118.096 1.98733 118.307 2.35844 118.208 2.71792C118.13 3.00277 117.881 3.19449 117.601 3.21161C117.529 3.2164 117.454 3.20887 117.379 3.18833ZM103.062 2.69875C102.965 2.33927 103.177 1.96952 103.537 1.87229C104.273 1.67304 105.028 1.50323 105.779 1.36697C106.146 1.29918 106.496 1.54363 106.563 1.90995C106.629 2.27628 106.386 2.62686 106.02 2.69327C105.305 2.82269 104.588 2.98428 103.889 3.17326C103.844 3.18559 103.799 3.19243 103.755 3.19517C103.441 3.21572 103.147 3.01372 103.062 2.69875ZM111.73 2.30161C111.006 2.2708 110.272 2.27012 109.546 2.30093C109.174 2.31668 108.86 2.02841 108.844 1.65592C108.828 1.28891 109.11 0.978045 109.475 0.954765C109.48 0.954765 109.484 0.954081 109.489 0.954081C110.253 0.921215 111.026 0.921899 111.787 0.954081C112.159 0.970515 112.448 1.2848 112.432 1.6566C112.416 2.00376 112.141 2.27902 111.802 2.30024C111.778 2.3023 111.754 2.30298 111.73 2.30161Z" fill="#484959" fill-opacity="0.5"/>
<path d="M94.3364 7.95349C94.4685 7.94527 94.6 7.89803 94.7123 7.80901C94.9841 7.59264 95.2655 7.37901 95.5483 7.17222C95.8489 6.95311 95.9153 6.53132 95.6955 6.23005C95.4764 5.92945 95.054 5.86303 94.7534 6.08283C94.4562 6.29989 94.1604 6.52448 93.8742 6.7518C93.5825 6.98324 93.5339 7.40776 93.7653 7.69877C93.9077 7.87954 94.1234 7.96718 94.3364 7.95349Z" fill="#484959" fill-opacity="0.5"/>
</g>
<g opacity="0.3">
<path d="M84.5093 26.0046C84.8338 25.984 85.105 25.7307 85.1372 25.3958C85.17 25.0501 85.2111 24.6988 85.2591 24.3523C85.3097 23.9833 85.0516 23.643 84.6832 23.5923C84.3128 23.5416 83.9738 23.7998 83.9232 24.1681C83.8732 24.5331 83.83 24.9028 83.7951 25.2671C83.7595 25.6376 84.0313 25.9669 84.4018 26.0025C84.4381 26.0059 84.4737 26.0066 84.5093 26.0046Z" fill="#484959" fill-opacity="0.5"/>
<path d="M110.954 54.784C110.581 54.7895 110.275 54.4916 110.27 54.1191C110.264 53.7466 110.561 53.4412 110.934 53.4358C111.643 53.4255 112.362 53.3851 113.08 53.3153C113.448 53.2783 113.78 53.5508 113.816 53.9212C113.851 54.2917 113.581 54.6217 113.21 54.6573C112.899 54.6874 112.588 54.7128 112.279 54.7319C111.838 54.76 111.393 54.7778 110.954 54.784ZM116.024 53.5535C115.938 53.1913 116.162 52.8284 116.525 52.7421C117.22 52.5771 117.916 52.3813 118.593 52.1595C118.946 52.0424 119.328 52.2361 119.444 52.5901C119.559 52.9435 119.367 53.3248 119.013 53.4406C118.3 53.6741 117.567 53.8808 116.835 54.0541C116.798 54.063 116.759 54.0685 116.722 54.0712C116.4 54.0917 116.101 53.8781 116.024 53.5535ZM107.286 54.5847C106.541 54.493 105.791 54.3677 105.054 54.2129C104.69 54.1362 104.456 53.7788 104.533 53.4145C104.61 53.0503 104.967 52.8175 105.331 52.8935C106.031 53.0407 106.743 53.1591 107.45 53.2461C107.82 53.292 108.082 53.6282 108.037 53.9979C107.996 54.3245 107.729 54.5676 107.411 54.5882C107.371 54.5916 107.328 54.5902 107.286 54.5847ZM121.517 51.7493C121.353 51.4145 121.492 51.0112 121.827 50.8475C122.469 50.5346 123.104 50.1902 123.716 49.8245C124.036 49.6335 124.45 49.7376 124.641 50.0574C124.832 50.3771 124.728 50.7907 124.408 50.9817C123.763 51.3672 123.094 51.7294 122.419 52.0595C122.337 52.0992 122.252 52.1211 122.166 52.1266C121.902 52.1437 121.641 52.0026 121.517 51.7493ZM101.522 53.2125C100.817 52.9592 100.113 52.6723 99.4285 52.3594C99.0902 52.2046 98.941 51.8048 99.0957 51.4665C99.2505 51.1276 99.6503 50.979 99.9893 51.1337C100.639 51.4309 101.308 51.7034 101.978 51.9438C102.329 52.0698 102.511 52.4559 102.385 52.8058C102.291 53.0667 102.053 53.2345 101.793 53.2509C101.704 53.2571 101.612 53.2447 101.522 53.2125ZM96.2 50.6099C95.5653 50.208 94.9401 49.7739 94.3424 49.3213C94.0459 49.096 93.987 48.6735 94.2123 48.377C94.4375 48.0799 94.86 48.0217 95.1565 48.247C95.7248 48.6776 96.3192 49.0898 96.9217 49.4719C97.236 49.6712 97.3298 50.0875 97.1306 50.4025C97.0101 50.5921 96.8115 50.701 96.6033 50.714C96.4664 50.7222 96.3253 50.6887 96.2 50.6099ZM91.5713 46.909C91.0393 46.3777 90.523 45.8182 90.0382 45.2458C89.7972 44.9617 89.8328 44.5364 90.117 44.2954C90.4011 44.0544 90.8263 44.09 91.0674 44.3742C91.5282 44.9178 92.0184 45.4492 92.5238 45.9545C92.7874 46.2174 92.7881 46.6447 92.5244 46.9076C92.4039 47.0288 92.2485 47.0946 92.0903 47.1041C91.9041 47.1165 91.7137 47.0507 91.5713 46.909ZM87.8601 42.2858C87.4568 41.651 87.0761 40.9916 86.7283 40.3261C86.5557 39.9961 86.6838 39.5886 87.0138 39.4161C87.3432 39.2442 87.7513 39.3716 87.9231 39.7016C88.2532 40.3336 88.6147 40.9595 88.9981 41.562C89.1981 41.8763 89.1049 42.2926 88.7907 42.4925C88.6914 42.5555 88.5818 42.5898 88.4723 42.5966C88.2354 42.6124 87.9971 42.5014 87.8601 42.2858ZM85.2541 36.9579C85.0014 36.252 84.7754 35.5255 84.5824 34.799C84.4865 34.4389 84.7008 34.0698 85.061 33.9746C85.4198 33.8794 85.7902 34.0931 85.8854 34.4532C86.0682 35.1434 86.2832 35.8336 86.5235 36.504C86.6488 36.8546 86.4667 37.2401 86.1161 37.366C86.0552 37.388 85.9929 37.4003 85.9313 37.4044C85.6389 37.4229 85.3575 37.2476 85.2541 36.9579ZM83.8826 31.194C83.8141 30.6455 83.7614 30.0881 83.7265 29.5376C83.7134 29.3384 83.7032 29.1391 83.695 28.9405C83.6792 28.5687 83.9634 28.2476 84.3406 28.2394C84.7125 28.2236 85.0267 28.5126 85.0425 28.8851C85.0507 29.0741 85.0603 29.263 85.0719 29.4527C85.1055 29.9765 85.1548 30.5058 85.2198 31.0276C85.2664 31.3966 85.0041 31.7342 84.6344 31.7801C84.6207 31.7814 84.6063 31.7835 84.5926 31.7842C84.2407 31.8054 83.9271 31.5493 83.8826 31.194Z" fill="#484959" fill-opacity="0.5"/>
<path d="M127.061 49.0212C127.194 49.013 127.327 48.9644 127.44 48.8747C127.724 48.646 128.009 48.4077 128.287 48.1653C128.568 47.9209 128.597 47.495 128.352 47.2142C128.107 46.9335 127.682 46.904 127.401 47.1492C127.137 47.3792 126.866 47.6059 126.596 47.8229C126.306 48.0557 126.259 48.4803 126.492 48.7706C126.634 48.9486 126.849 49.0349 127.061 49.0212Z" fill="#484959" fill-opacity="0.5"/>
</g>
<path d="M128.333 37.534C128.411 37.4245 128.412 37.2779 128.334 37.1684L126.113 34.042C126.795 32.3863 127.218 30.6094 127.34 28.771L130.709 26.9455C130.828 26.8811 130.892 26.7497 130.87 26.6168L130.118 22.0792C130.096 21.9463 129.992 21.8423 129.859 21.8204L126.081 21.1808C125.373 19.4793 124.399 17.9346 123.218 16.5877L124.311 12.9121C124.349 12.7834 124.302 12.6444 124.193 12.5663L120.452 9.88977C120.342 9.81171 120.196 9.81102 120.086 9.88908L116.96 12.1103C115.304 11.4277 113.527 11.0045 111.689 10.8833L109.863 7.51378C109.799 7.39533 109.668 7.33096 109.535 7.35287L104.997 8.10538C104.864 8.12729 104.76 8.23137 104.738 8.36352L104.099 12.1425C102.397 12.8505 100.853 13.8249 99.5057 15.0053L95.8301 13.9125C95.7014 13.8742 95.5624 13.9221 95.4843 14.031L92.8077 17.7716C92.7297 17.8812 92.729 18.0277 92.8071 18.1372L95.0283 21.2637C94.3456 22.9193 93.9225 24.6955 93.8013 26.5347L90.4318 28.3601C90.3133 28.4238 90.2489 28.556 90.2708 28.6888L91.0234 33.2265C91.0453 33.3593 91.1493 33.4634 91.2815 33.4853L95.0598 34.1248C95.7678 35.8263 96.7421 37.3711 97.9226 38.7179L96.8298 42.3935C96.7914 42.5222 96.8394 42.6612 96.9482 42.7393L100.689 45.4159C100.798 45.4939 100.945 45.4946 101.055 45.4165L104.181 43.1953C105.837 43.878 107.613 44.3011 109.452 44.4223L111.277 47.7919C111.342 47.9096 111.473 47.9747 111.606 47.9528L116.144 47.2003C116.277 47.1783 116.381 47.0743 116.403 46.9421L117.042 43.1638C118.744 42.4558 120.288 41.4815 121.635 40.301L125.311 41.3938C125.44 41.4322 125.579 41.3842 125.657 41.2754L128.333 37.534Z" fill="#484959" fill-opacity="0.5"/>
<path d="M110.188 32.2599C107.647 32.0483 105.752 29.8099 105.963 27.2689C106.065 26.0378 106.641 24.921 107.584 24.1226C108.526 23.3249 109.723 22.9415 110.954 23.0442C113.495 23.2558 115.39 25.4941 115.179 28.0351C114.987 30.3467 113.117 32.1236 110.867 32.2667C110.644 32.2811 110.417 32.279 110.188 32.2599ZM108.28 24.9464C107.557 25.5585 107.116 26.4151 107.038 27.3586C106.876 29.3067 108.329 31.0233 110.277 31.1848C112.226 31.3478 113.942 29.8935 114.104 27.9454C114.266 25.9974 112.813 24.2808 110.865 24.1192C110.688 24.1048 110.513 24.1028 110.339 24.1137C109.585 24.1623 108.868 24.4492 108.28 24.9464Z" fill="#484959" fill-opacity="0.5"/>
<path d="M111.195 38.9369C111.581 38.9123 111.969 38.8684 112.356 38.8041C112.477 38.7842 112.599 38.7616 112.72 38.7377C113.317 38.6185 113.904 38.4521 114.471 38.2412C114.479 38.2385 114.487 38.2358 114.495 38.2323C114.517 38.2241 114.539 38.2159 114.56 38.207C114.603 38.1906 114.645 38.1741 114.688 38.1577C114.799 38.1139 114.865 38.0036 114.858 37.89C114.856 37.8626 114.85 37.8345 114.839 37.8078C114.784 37.6695 114.628 37.6017 114.489 37.6565C113.776 37.9386 113.029 38.1454 112.267 38.2714C108.481 38.8999 104.821 37.473 102.429 34.8101C101.099 33.329 100.161 31.4652 99.8115 29.3597C99.7499 28.9906 99.7081 28.6209 99.6848 28.2525C99.528 25.7725 100.222 23.3348 101.688 21.2868C103.371 18.9341 105.869 17.3778 108.723 16.9046C114.617 15.9275 120.202 19.9256 121.179 25.8163C121.239 26.1792 121.281 26.5441 121.304 26.9098C121.404 28.4915 121.156 30.078 120.574 31.5536C120.559 31.5919 120.554 31.6309 120.556 31.6693C120.562 31.7699 120.626 31.8637 120.726 31.9028C120.865 31.9569 121.021 31.8898 121.076 31.7508C121.687 30.2012 121.946 28.536 121.841 26.8755C121.817 26.4921 121.773 26.1093 121.71 25.7279C120.685 19.5429 114.817 15.3469 108.635 16.3719C105.639 16.869 103.016 18.5028 101.249 20.9726C99.7102 23.1226 98.9809 25.6821 99.146 28.2854C99.1706 28.6723 99.2151 29.0605 99.2788 29.448C99.7759 32.4444 101.41 35.0669 103.879 36.8341C106.03 38.3734 108.591 39.1026 111.195 38.9369Z" fill="#484959" fill-opacity="0.5"/>
<g opacity="0.3">
<path d="M160.963 45.9103C161.143 45.8987 161.301 45.7713 161.342 45.5865C161.42 45.242 161.488 44.8901 161.545 44.5409C161.582 44.3142 161.429 44.0999 161.202 44.0629C160.974 44.0246 160.761 44.18 160.724 44.4067C160.67 44.7395 160.604 45.075 160.53 45.4036C160.479 45.6275 160.62 45.8508 160.844 45.9014C160.884 45.9103 160.924 45.9131 160.963 45.9103Z" fill="#484959" fill-opacity="0.5"/>
<path d="M161.335 42.7355C161.105 42.7266 160.927 42.5335 160.936 42.3034C160.958 41.7234 160.95 41.1359 160.914 40.5567C160.906 40.4348 160.897 40.3122 160.886 40.189C160.867 39.9603 161.037 39.7583 161.266 39.7391C161.483 39.7295 161.697 39.8898 161.716 40.1191C161.727 40.2479 161.737 40.3759 161.745 40.5033C161.783 41.1106 161.792 41.7269 161.768 42.3349C161.759 42.5499 161.589 42.7211 161.379 42.7341C161.364 42.7355 161.35 42.7361 161.335 42.7355ZM160.58 38.0965C160.435 37.4076 160.247 36.7215 160.021 36.0581C159.946 35.8403 160.063 35.6041 160.28 35.5294C160.497 35.4555 160.735 35.5712 160.809 35.789C161.047 36.4846 161.244 37.2043 161.395 37.926C161.442 38.1512 161.298 38.3717 161.073 38.419C161.053 38.4231 161.033 38.4258 161.013 38.4265C160.81 38.4402 160.623 38.3019 160.58 38.0965ZM159.214 34.1039C158.905 33.4725 158.555 32.8536 158.17 32.2647C158.045 32.0723 158.099 31.8141 158.291 31.6888C158.484 31.5629 158.742 31.6169 158.868 31.81C159.271 32.4277 159.639 33.0768 159.962 33.7389C160.063 33.9457 159.977 34.1949 159.77 34.2956C159.72 34.3202 159.667 34.3332 159.614 34.3367C159.45 34.3469 159.29 34.26 159.214 34.1039ZM156.907 30.568C156.453 30.0304 155.961 29.5162 155.446 29.0403C155.277 28.8842 155.267 28.6206 155.423 28.4522C155.578 28.2837 155.842 28.2728 156.011 28.4289C156.551 28.928 157.067 29.4669 157.544 30.0311C157.692 30.2064 157.67 30.4694 157.494 30.6179C157.423 30.6775 157.338 30.7097 157.253 30.7152C157.125 30.7227 156.996 30.6727 156.907 30.568ZM153.808 27.7024C153.237 27.2916 152.636 26.9129 152.02 26.5753C151.819 26.4651 151.745 26.2118 151.855 26.0104C151.965 25.8085 152.218 25.7345 152.42 25.8454C153.065 26.1987 153.696 26.5966 154.295 27.0266C154.481 27.1608 154.524 27.421 154.39 27.6079C154.314 27.7133 154.198 27.7729 154.077 27.7805C153.985 27.7859 153.89 27.7606 153.808 27.7024ZM150.107 25.6763C149.454 25.4168 148.779 25.1963 148.1 25.0203C147.877 24.9628 147.744 24.7355 147.801 24.513C147.859 24.2904 148.085 24.1569 148.309 24.2144C149.021 24.3993 149.729 24.6307 150.414 24.9026C150.628 24.9875 150.733 25.2292 150.648 25.4428C150.586 25.5976 150.442 25.6948 150.287 25.7051C150.228 25.7085 150.167 25.6996 150.107 25.6763ZM146.025 24.617C145.331 24.526 144.621 24.478 143.916 24.4739C143.686 24.4726 143.501 24.2849 143.503 24.0549C143.504 23.8248 143.691 23.6434 143.922 23.6406C144.66 23.6454 145.405 23.6961 146.133 23.7913C146.361 23.8214 146.522 24.0302 146.492 24.2582C146.466 24.4589 146.301 24.6075 146.106 24.6198C146.08 24.6211 146.053 24.6205 146.025 24.617ZM139.221 24.6588C139.166 24.4356 139.303 24.2103 139.527 24.1555C140.145 24.0049 140.783 23.8851 141.42 23.8002C141.516 23.7865 141.613 23.7748 141.709 23.7632C141.936 23.7303 142.145 23.9001 142.171 24.1288C142.198 24.3575 142.034 24.5636 141.805 24.5903C141.715 24.6006 141.624 24.6122 141.531 24.6246C140.922 24.7054 140.314 24.8197 139.724 24.9635C139.7 24.9697 139.676 24.9731 139.652 24.9745C139.453 24.9888 139.269 24.8581 139.221 24.6588Z" fill="#484959" fill-opacity="0.5"/>
</g>
<g opacity="0.3">
<path d="M144.685 59.5878C143.96 59.6241 143.227 59.6166 142.505 59.5659C142.276 59.5495 142.103 59.3509 142.119 59.1208C142.135 58.8915 142.336 58.721 142.564 58.7347C143.252 58.7833 143.951 58.7901 144.643 58.7552C144.872 58.7436 145.068 58.9202 145.08 59.1503C145.091 59.3783 144.917 59.5728 144.69 59.5871C144.688 59.5871 144.686 59.5878 144.685 59.5878ZM146.371 59.0072C146.332 58.7805 146.484 58.5655 146.711 58.5265C147.393 58.4094 148.074 58.2492 148.736 58.0513C148.955 57.9863 149.189 58.1109 149.254 58.3314C149.32 58.5518 149.195 58.7833 148.975 58.8497C148.281 59.0572 147.567 59.2249 146.852 59.3475C146.837 59.3502 146.822 59.3516 146.807 59.353C146.598 59.3653 146.407 59.2194 146.371 59.0072ZM140.343 59.279C139.63 59.1393 138.92 58.9551 138.232 58.7312C138.014 58.66 137.894 58.4245 137.965 58.2061C138.037 57.9869 138.271 57.8685 138.49 57.939C139.146 58.1526 139.823 58.3286 140.503 58.4621C140.729 58.5067 140.876 58.7251 140.832 58.9504C140.795 59.14 140.634 59.2742 140.45 59.2859C140.415 59.2879 140.378 59.2859 140.343 59.279ZM150.474 57.8829C150.382 57.6727 150.477 57.4268 150.688 57.3344C151.322 57.0564 151.944 56.7373 152.538 56.3847C152.736 56.2676 152.992 56.3333 153.109 56.5299C153.226 56.7277 153.161 56.9831 152.963 57.1002C152.34 57.47 151.687 57.8055 151.022 58.0965C150.977 58.1164 150.929 58.128 150.881 58.1307C150.712 58.1417 150.547 58.0472 150.474 57.8829ZM136.206 57.9308C135.549 57.6247 134.905 57.2748 134.29 56.8914C134.095 56.7695 134.035 56.5127 134.157 56.3176C134.279 56.1225 134.536 56.0622 134.731 56.1848C135.318 56.5511 135.932 56.8845 136.558 57.1762C136.766 57.2735 136.857 57.5213 136.76 57.7295C136.693 57.8726 136.556 57.9596 136.408 57.9691C136.341 57.9733 136.271 57.9609 136.206 57.9308ZM132.512 55.6288C131.947 55.1734 131.404 54.6791 130.9 54.1607C130.74 53.9964 130.743 53.7328 130.907 53.5725C131.072 53.4123 131.335 53.4158 131.496 53.5801C131.978 54.0745 132.495 54.5455 133.035 54.9803C133.213 55.1248 133.242 55.3871 133.098 55.5658C133.022 55.6603 132.912 55.713 132.8 55.7198C132.699 55.7267 132.597 55.6966 132.512 55.6288ZM129.476 52.5085C129.035 51.9306 128.627 51.3205 128.262 50.696C128.146 50.4975 128.213 50.2427 128.412 50.1263C128.61 50.0099 128.865 50.0777 128.981 50.2756C129.329 50.8713 129.719 51.4533 130.138 52.0039C130.277 52.1867 130.242 52.4482 130.059 52.5872C129.991 52.6393 129.912 52.6667 129.834 52.6715C129.699 52.6804 129.564 52.6235 129.476 52.5085Z" fill="#484959" fill-opacity="0.5"/>
<path d="M154.557 55.9495C154.637 55.9447 154.716 55.916 154.785 55.8632C155.067 55.6455 155.343 55.4182 155.608 55.1874C155.781 55.0361 155.799 54.7732 155.648 54.5999C155.497 54.4274 155.234 54.4089 155.061 54.5595C154.809 54.7793 154.545 54.9964 154.276 55.2045C154.094 55.3449 154.061 55.6071 154.201 55.7886C154.288 55.9023 154.423 55.9584 154.557 55.9495Z" fill="#484959" fill-opacity="0.5"/>
</g>
<path d="M155.662 48.1011C155.714 48.0278 155.715 47.9299 155.663 47.856L154.177 45.7641C154.634 44.6563 154.917 43.4676 154.998 42.2371L157.253 41.0156C157.332 40.9725 157.376 40.8841 157.361 40.7958L156.857 37.7591C156.843 37.67 156.773 37.6009 156.685 37.5858L154.156 37.1579C153.682 36.0192 153.03 34.9859 152.24 34.0842L152.971 31.6246C152.997 31.5384 152.965 31.4452 152.892 31.3932L150.389 29.602C150.315 29.5499 150.217 29.5492 150.144 29.6013L148.052 31.0871C146.944 30.6304 145.755 30.3469 144.525 30.2661L143.303 28.0114C143.26 27.9319 143.172 27.8888 143.083 27.9039L140.047 28.4071C139.958 28.4222 139.888 28.4913 139.873 28.5797L139.445 31.1083C138.307 31.5822 137.274 32.234 136.372 33.0242L133.912 32.2929C133.826 32.2676 133.733 32.2991 133.681 32.3723L131.89 34.8757C131.838 34.949 131.837 35.0469 131.889 35.1201L133.375 37.212C132.918 38.3198 132.635 39.5085 132.554 40.739L130.299 41.9605C130.22 42.003 130.176 42.0913 130.191 42.1803L130.695 45.217C130.71 45.3061 130.779 45.3752 130.867 45.3903L133.396 45.8182C133.87 46.9569 134.522 47.9902 135.312 48.8919L134.581 51.3515C134.555 51.4377 134.587 51.5309 134.66 51.5829L137.163 53.3741C137.237 53.4262 137.334 53.4269 137.408 53.3748L139.5 51.889C140.608 52.3457 141.797 52.6291 143.027 52.7099L144.249 54.9647C144.292 55.0435 144.38 55.0873 144.469 55.0722L147.505 54.569C147.594 54.5539 147.663 54.4847 147.679 54.3964L148.106 51.8677C149.245 51.3939 150.278 50.7421 151.18 49.9519L153.64 50.6832C153.726 50.7085 153.819 50.677 153.871 50.6037L155.662 48.1011Z" fill="#484959" fill-opacity="0.5"/>
<path d="M143.515 44.6265C142.676 44.5573 141.915 44.165 141.372 43.5227C140.828 42.8811 140.567 42.0656 140.637 41.2268C140.781 39.4965 142.304 38.2079 144.037 38.3489C145.768 38.4934 147.058 40.0183 146.914 41.7486C146.844 42.5867 146.452 43.3481 145.81 43.8918C145.288 44.3334 144.652 44.5888 143.981 44.6313C143.827 44.6408 143.671 44.6395 143.515 44.6265ZM141.466 41.296C141.415 41.9129 141.607 42.5127 142.007 42.9852C142.406 43.457 142.967 43.7459 143.583 43.7973C144.2 43.8479 144.8 43.6562 145.272 43.2563C145.744 42.8571 146.033 42.2964 146.084 41.6801C146.19 40.4072 145.24 39.2856 143.968 39.1795C143.853 39.1699 143.739 39.1692 143.627 39.1761C142.5 39.2473 141.563 40.1381 141.466 41.296Z" fill="#484959" fill-opacity="0.5"/>
<path d="M144.216 49.2747C144.479 49.2583 144.743 49.2274 145.008 49.1843C145.535 49.0974 146.053 48.9563 146.55 48.7653C146.573 48.7564 146.595 48.7475 146.617 48.7392C146.789 48.6715 146.891 48.5016 146.88 48.3264C146.878 48.2839 146.868 48.2408 146.851 48.199C146.767 47.9854 146.525 47.8813 146.311 47.9655C145.849 48.1483 145.365 48.2825 144.873 48.3633C144.846 48.3681 144.819 48.3722 144.792 48.3763C143.625 48.5585 142.457 48.4428 141.374 48.0552C140.786 47.845 140.223 47.554 139.698 47.1856C139.694 47.1829 139.69 47.1794 139.685 47.1767C139.672 47.1671 139.659 47.1582 139.646 47.1493C138.123 46.0592 137.115 44.4419 136.809 42.5946C136.77 42.3556 136.742 42.1166 136.727 41.8776C136.625 40.272 137.075 38.6937 138.024 37.3681C139.114 35.8452 140.731 34.838 142.579 34.532C144.425 34.2266 146.282 34.6573 147.805 35.7466C149.328 36.8367 150.336 38.454 150.642 40.3014C150.681 40.5363 150.708 40.7725 150.723 41.0087C150.788 42.0331 150.628 43.0595 150.251 44.0147C150.228 44.0735 150.219 44.1345 150.223 44.1934C150.233 44.3495 150.331 44.4933 150.486 44.5542C150.7 44.6378 150.941 44.5337 151.026 44.3194C151.448 43.2505 151.627 42.1015 151.555 40.956C151.538 40.6917 151.508 40.4274 151.464 40.1645C151.121 38.0973 149.994 36.2876 148.29 35.0688C146.586 33.85 144.51 33.3659 142.443 33.7103C140.376 34.0526 138.567 35.1797 137.348 36.884C136.286 38.3671 135.783 40.133 135.897 41.929C135.914 42.1954 135.944 42.4631 135.988 42.7308C136.651 46.731 140.252 49.526 144.216 49.2747Z" fill="#484959" fill-opacity="0.5"/>
<defs>
<linearGradient id="paint0_linear_312_244" x1="6.25258" y1="176.9" x2="4.70136" y2="190.438" gradientUnits="userSpaceOnUse">
<stop stop-color="#FEBBBA"/>
<stop offset="1" stop-color="#FF928E"/>
</linearGradient>
<linearGradient id="paint1_linear_312_244" x1="18.6771" y1="178.33" x2="17.9805" y2="191.939" gradientUnits="userSpaceOnUse">
<stop stop-color="#FEBBBA"/>
<stop offset="1" stop-color="#FF928E"/>
</linearGradient>
<linearGradient id="paint2_linear_312_244" x1="12.441" y1="97.9947" x2="16.0437" y2="88.1564" gradientUnits="userSpaceOnUse">
<stop stop-color="#FEBBBA"/>
<stop offset="1" stop-color="#FF928E"/>
</linearGradient>
<linearGradient id="paint3_linear_312_244" x1="15.5589" y1="66.2833" x2="13.885" y2="79.0651" gradientUnits="userSpaceOnUse">
<stop stop-color="#4042E2"/>
<stop offset="1" stop-color="#4F52FF"/>
</linearGradient>
<linearGradient id="paint4_linear_312_244" x1="18.4862" y1="66.6666" x2="16.8124" y2="79.4483" gradientUnits="userSpaceOnUse">
<stop stop-color="#4042E2"/>
<stop offset="1" stop-color="#4F52FF"/>
</linearGradient>
<linearGradient id="paint5_linear_312_244" x1="21.2968" y1="83.2362" x2="-0.169166" y2="100.333" gradientUnits="userSpaceOnUse">
<stop stop-color="#FEBBBA"/>
<stop offset="1" stop-color="#FF928E"/>
</linearGradient>
<linearGradient id="paint6_linear_312_244" x1="19.1366" y1="82.2994" x2="8.57255" y2="90.3825" gradientUnits="userSpaceOnUse">
<stop stop-color="#FEBBBA"/>
<stop offset="1" stop-color="#FF928E"/>
</linearGradient>
<linearGradient id="paint7_linear_312_244" x1="44.138" y1="87.6406" x2="21.7709" y2="106.962" gradientUnits="userSpaceOnUse">
<stop stop-color="#FEBBBA"/>
<stop offset="1" stop-color="#FF928E"/>
</linearGradient>
<linearGradient id="paint8_linear_312_244" x1="44.6043" y1="89.4416" x2="22.8319" y2="108.249" gradientUnits="userSpaceOnUse">
<stop stop-color="#FEBBBA"/>
<stop offset="1" stop-color="#FF928E"/>
</linearGradient>
<linearGradient id="paint9_linear_312_244" x1="44.9661" y1="88.5991" x2="22.599" y2="107.92" gradientUnits="userSpaceOnUse">
<stop stop-color="#FEBBBA"/>
<stop offset="1" stop-color="#FF928E"/>
</linearGradient>
<linearGradient id="paint10_linear_312_244" x1="30.7958" y1="104.451" x2="20.1585" y2="157.514" gradientUnits="userSpaceOnUse">
<stop stop-color="#FEBBBA"/>
<stop offset="1" stop-color="#FF928E"/>
</linearGradient>
</defs>
</svg>
