<svg width="90" height="24" viewBox="0 0 90 24" fill="none" xmlns="http://www.w3.org/2000/svg">
<path d="M27.0192 7.26132V16.6927C27.0192 17.7261 27.2885 18.5193 27.827 19.0724C28.3655 19.6109 29.1224 19.8802 30.0975 19.8802C31.0872 19.8802 31.8513 19.6109 32.3899 19.0724C32.9284 18.5193 33.1976 17.7261 33.1976 16.6927V7.26132H36.2759V16.6709C36.2759 17.9662 35.9921 19.0651 35.4245 19.9675C34.8714 20.8553 34.1219 21.5248 33.1758 21.976C32.2443 22.4272 31.2037 22.6528 30.0538 22.6528C28.9186 22.6528 27.8852 22.4272 26.9537 21.976C26.0368 21.5248 25.309 20.8553 24.7705 19.9675C24.232 19.0651 23.9627 17.9662 23.9627 16.6709V7.26132H27.0192ZM52.2627 22.5H49.2062L42.2855 12.0425V22.5H39.2291V7.23948H42.2855L49.2062 17.7188V7.23948H52.2627V22.5ZM60.5447 22.6528C59.4822 22.6528 58.5216 22.4709 57.6629 22.107C56.8187 21.7432 56.1492 21.2192 55.6543 20.5351C55.1595 19.8511 54.9048 19.0433 54.8902 18.1118H58.165C58.2087 18.7376 58.427 19.2325 58.82 19.5964C59.2275 19.9602 59.7806 20.1422 60.4792 20.1422C61.1924 20.1422 61.7527 19.9748 62.1602 19.64C62.5678 19.2907 62.7715 18.8395 62.7715 18.2864C62.7715 17.8352 62.6333 17.4641 62.3567 17.173C62.0802 16.8819 61.7309 16.6563 61.3088 16.4962C60.9013 16.3216 60.3336 16.1324 59.6059 15.9286C58.6162 15.6375 57.8084 15.3537 57.1826 15.0771C56.5713 14.7861 56.04 14.3567 55.5888 13.7891C55.1522 13.2069 54.9339 12.4355 54.9339 11.4749C54.9339 10.5725 55.1595 9.78654 55.6107 9.11703C56.0619 8.44752 56.695 7.93811 57.51 7.58879C58.3251 7.22493 59.2566 7.043 60.3045 7.043C61.8764 7.043 63.15 7.42869 64.1251 8.20009C65.1148 8.95693 65.6606 10.0194 65.7625 11.3876H62.4004C62.3713 10.8636 62.1457 10.4342 61.7236 10.0995C61.3161 9.75016 60.7703 9.5755 60.0862 9.5755C59.4895 9.5755 59.0092 9.72832 58.6453 10.034C58.296 10.3396 58.1213 10.7835 58.1213 11.3657C58.1213 11.7732 58.2523 12.1153 58.5143 12.3918C58.7909 12.6538 59.1256 12.8721 59.5186 13.0468C59.9261 13.2069 60.4937 13.3961 61.2215 13.6144C62.2112 13.9055 63.019 14.1966 63.6448 14.4877C64.2707 14.7788 64.8092 15.2154 65.2604 15.7976C65.7116 16.3798 65.9372 17.1439 65.9372 18.09C65.9372 18.905 65.7261 19.6618 65.304 20.3605C64.882 21.0591 64.2634 21.6194 63.4483 22.0415C62.6333 22.4491 61.6654 22.6528 60.5447 22.6528ZM81.2277 7.26132V22.5H78.1712V16.0159H71.6435V22.5H68.587V7.26132H71.6435V13.5271H78.1712V7.26132H81.2277ZM87.2925 7.26132V22.5H84.2361V7.26132H87.2925Z" fill="white"/>
<path d="M9.44325 5.23369L0.10046 0L0 22.8379H5.32438V19.2219H4.0184V6.47075L9.44325 9.42064L14.9686 6.47075V19.2219H13.4616V22.8379H18.786V0L9.44325 5.23369Z" fill="white"/>
<path d="M11.3762 20.0749L9.45862 22.8374L7.54102 20.0749L9.05491 9.78711H9.86233L11.3762 20.0749Z" fill="white"/>
<path d="M9.20832 9.66357L8.70996 9.90981H10.205L9.70668 9.66357H9.20832Z" fill="white"/>
</svg>
