<svg width="20" height="14" viewBox="0 0 20 14" fill="none" xmlns="http://www.w3.org/2000/svg">
<path d="M14.8082 6.27171C16.1666 6.27171 17.2678 5.17052 17.2678 3.81212C17.2678 2.45373 16.1666 1.35254 14.8082 1.35254C13.4498 1.35254 12.3486 2.45373 12.3486 3.81212C12.3486 5.17052 13.4498 6.27171 14.8082 6.27171Z" fill="white"/>
<path d="M6.18711 8.13818C3.08719 8.13818 0.574219 10.6512 0.574219 13.7511H11.8C11.8 10.6512 9.28703 8.13818 6.18711 8.13818Z" fill="white"/>
<path d="M14.8085 7.94336C13.6502 7.94336 12.5956 8.3857 11.8032 9.11013C12.5952 10.0651 13.1223 11.1925 13.3475 12.4013H19.2665C19.2665 9.93926 17.2706 7.94336 14.8085 7.94336Z" fill="white"/>
<path d="M6.18713 6.46557C7.89745 6.46557 9.28393 5.07909 9.28393 3.36877C9.28393 1.65846 7.89745 0.271973 6.18713 0.271973C4.47682 0.271973 3.09033 1.65846 3.09033 3.36877C3.09033 5.07909 4.47682 6.46557 6.18713 6.46557Z" fill="white"/>
</svg>
