<svg width="10" height="14" viewBox="0 0 10 14" fill="none" xmlns="http://www.w3.org/2000/svg">
<path d="M4.84281 1.5837C3.46945 1.5837 2.09299 1.5837 0.719622 1.5837C0.320604 1.5837 0.147387 1.45997 0.0453121 1.11045C-0.0722282 0.705242 0.0453126 0.231987 0.323698 0.0742353C0.425772 0.0185583 0.558779 0.00309265 0.679412 0.00309265C3.45708 -5.19109e-07 6.23474 0 9.00931 0C9.41761 0 9.60629 0.136099 9.67434 0.547491C9.70836 0.754733 9.68671 0.983627 9.63104 1.18778C9.5568 1.46616 9.35265 1.58679 9.04952 1.58679C7.64832 1.58061 6.24711 1.5837 4.84281 1.5837Z" fill="#232D47"/>
<path d="M4.91432 8.7627C4.97 9.56383 5.43707 10.1144 5.99075 10.6217C6.44235 11.0331 6.88158 11.4537 7.30225 11.8961C7.65178 12.2642 7.89923 12.7034 8.01986 13.2385C5.91032 13.2385 3.81934 13.2385 1.68506 13.2385C1.74074 13.0746 1.76548 12.8952 1.85518 12.7653C2.14903 12.3353 2.44288 11.8992 2.78932 11.5125C3.16359 11.0949 3.59354 10.7269 4.00803 10.3464C4.41014 9.9814 4.67924 9.54836 4.77513 9.01015C4.7906 8.92973 4.81843 8.8524 4.84318 8.77197C4.86793 8.76888 4.89267 8.76579 4.91432 8.7627Z" fill="#232D47"/>
<path d="M1.43713 13.2513C1.20205 13.2513 0.985527 13.2513 0.741167 13.2513C0.710235 12.212 0.629813 11.1727 1.39383 10.3252C1.96297 9.6942 2.55067 9.08175 3.11981 8.45384C3.90548 7.58466 3.90857 7.68673 3.09816 6.81446C2.64346 6.32574 2.1764 5.84939 1.70005 5.37923C1.04739 4.73585 0.713329 3.96875 0.728795 3.04698C0.734982 2.66652 0.728795 2.28606 0.728795 1.88086C0.973155 1.88086 1.20514 1.88086 1.45878 1.88086C1.45878 2.33555 1.45878 2.79025 1.45878 3.24185C1.45878 3.84811 1.71242 4.34611 2.12691 4.77297C2.64037 5.29881 3.15693 5.82155 3.66112 6.35667C3.87145 6.57629 4.06941 6.81137 4.24263 7.05882C4.50555 7.43309 4.50246 7.83211 4.24572 8.20638C4.07869 8.44765 3.88692 8.67654 3.68896 8.89307C3.19714 9.42509 2.70223 9.95712 2.19496 10.4737C1.62891 11.0459 1.39692 11.7326 1.43404 12.5275C1.44332 12.7595 1.43713 12.9884 1.43713 13.2513Z" fill="#232D47"/>
<path d="M8.99108 13.2481C8.74362 13.2481 8.5271 13.2481 8.28274 13.2481C8.28274 13.0006 8.27346 12.7563 8.28583 12.5119C8.32295 11.717 8.0755 11.0365 7.51254 10.4611C7.01764 9.95695 6.5351 9.44349 6.05566 8.92384C5.84842 8.70113 5.65355 8.46296 5.48033 8.21241C5.2236 7.83814 5.22051 7.43603 5.48033 7.06175C5.65974 6.80502 5.86389 6.56066 6.07731 6.33176C6.50726 5.87088 6.93412 5.40381 7.395 4.98005C8.04147 4.38926 8.31058 3.66546 8.27965 2.80556C8.26727 2.50243 8.27656 2.1962 8.27656 1.87451C8.4807 1.87451 8.70651 1.87451 8.95087 1.87451C8.95087 2.422 8.97252 2.97877 8.94468 3.53554C8.90756 4.25934 8.53329 4.83158 8.04457 5.33577C7.4878 5.91109 6.92175 6.48024 6.37735 7.06794C5.89791 7.5814 5.89791 7.68348 6.37426 8.20622C6.93412 8.82176 7.50326 9.42493 8.07859 10.0219C8.73434 10.7086 9.03747 11.519 8.98798 12.4655C8.9787 12.7192 8.99108 12.9666 8.99108 13.2481Z" fill="#232D47"/>
<path d="M4.84607 7.65545C4.8337 7.6338 4.82442 7.62452 4.82442 7.61833C4.8306 6.73059 4.37281 6.08103 3.76965 5.48405C3.34279 5.06029 2.95924 4.59012 2.57568 4.11378C4.10989 4.91181 5.61936 4.93656 7.15666 4.08594C6.96489 4.32411 6.7793 4.56847 6.57824 4.79737C6.26274 5.15617 5.95342 5.51807 5.61317 5.85214C5.17085 6.28209 4.96051 6.80174 4.9203 7.40181C4.91412 7.47605 4.89865 7.55028 4.88628 7.62452C4.88628 7.6338 4.87391 7.63999 4.84607 7.65545Z" fill="#232D47"/>
</svg>
