<svg width="193" height="190" viewBox="0 0 193 190" fill="none" xmlns="http://www.w3.org/2000/svg">
<path d="M12.1556 1.35126C11.8454 0.394593 12.9613 -0.391239 13.7669 0.210093C21.9519 6.31429 42.0862 25.0922 41.789 61.9416C41.4166 108.174 52.807 123.734 65.7848 132.54C65.7848 132.54 49.0036 129.613 36.8683 113.89C7.07303 75.2856 17.6667 18.3594 12.1556 1.35126Z" fill="#484959" fill-opacity="0.5"/>
<path d="M19.403 14.954C20.9049 19.9252 22.3085 24.9238 23.5275 29.9661C24.7726 35.0016 25.8645 40.0719 26.7966 45.1695C27.7088 50.2699 28.5254 55.3867 29.124 60.5308C29.7452 65.6722 30.1449 70.8341 30.5283 76.0178C30.9403 81.1968 31.3257 86.4168 32.2468 91.6128C33.1611 96.7986 34.7096 101.959 37.1545 106.684C37.7654 107.861 38.4002 109.032 39.0972 110.154C39.7737 111.289 40.5015 112.394 41.2477 113.486C42.7524 115.663 44.404 117.744 46.2025 119.692C49.8098 123.581 54.0068 126.918 58.5216 129.632C58.9965 129.918 59.6136 129.764 59.8992 129.289C60.1801 128.822 60.0366 128.22 59.5815 127.927L59.5781 127.925C58.4991 127.234 57.429 126.531 56.3937 125.783C55.8703 125.417 55.3639 125.028 54.8508 124.65C54.3526 124.252 53.8381 123.874 53.3529 123.462C51.3835 121.845 49.5297 120.091 47.8145 118.209C44.3698 114.467 41.467 110.191 39.1232 105.681C37.9766 103.413 36.9987 101.064 36.2054 98.6477C35.4134 96.2308 34.8066 93.7489 34.3406 91.2308C33.4078 86.1919 32.9835 81.0287 32.5345 75.8532C32.0788 70.6769 31.5847 65.4781 30.8781 60.308C30.5317 57.7223 30.1388 55.1434 29.7001 52.5727C29.4882 51.286 29.2511 50.0041 29.0167 48.7215C28.7701 47.4409 28.5159 46.1624 28.2521 44.8859C27.1854 39.7821 25.9636 34.7132 24.584 29.69C23.1797 24.6737 21.6429 19.6963 19.9168 14.7859C19.8676 14.6458 19.7139 14.572 19.5731 14.6212C19.4351 14.6697 19.362 14.8173 19.403 14.954Z" fill="white" fill-opacity="0.3"/>
<path d="M50.7981 171.377C50.4769 173.201 48.3962 174.104 46.8307 173.114C38.1906 167.649 15.1603 149.989 10.9913 114.944C7.47009 85.3507 2.74896 69.6388 0.111298 62.6545C-0.446301 61.1778 1.20531 59.8474 2.53097 60.7043C17.1584 70.1582 62.4434 105.257 50.7981 171.377Z" fill="#484959" fill-opacity="0.5"/>
<path d="M48.3293 171.823C48.2958 171.855 48.2589 171.884 48.2193 171.91C47.8824 172.124 47.4348 172.024 47.2209 171.687C46.9783 171.305 22.8527 132.995 16.0986 92.0684C16.0337 91.6748 16.3002 91.3024 16.6945 91.2368C17.0887 91.1719 17.4612 91.4384 17.5261 91.8327C24.2309 132.461 48.2008 170.531 48.442 170.91C48.6306 171.208 48.576 171.59 48.3293 171.823Z" fill="white" fill-opacity="0.3"/>
<path d="M46.4747 3.82525C41.8034 4.23115 38.2221 8.1439 38.2084 12.8322C38.1271 41.5069 37.9932 140.413 39.8621 175.42C40.0602 179.128 43.1004 182.042 46.8143 182.082C65.1829 182.28 118.019 182.643 148.014 180.725C154.262 180.325 159.123 175.151 159.116 168.89C159.079 138.795 158.598 54.1581 154.476 15.4713C153.982 10.8362 150.256 7.21799 145.608 6.85582C125.576 5.29578 72.3757 1.57299 46.4747 3.82525Z" fill="#232D47"/>
<path d="M45.5808 20.347C45.22 44.8759 44.1929 126.472 45.986 156.588C46.2477 160.99 49.6671 164.464 53.8894 164.612C71.2726 165.218 115.848 166.39 141.249 163.595C145.823 163.092 149.319 159.127 149.44 154.327C150.076 129.296 151.792 53.2986 150.049 23.519C149.771 18.7685 146.142 14.9781 141.592 14.6713C122.771 13.403 74.4385 10.4783 52.8391 12.2769C48.7835 12.6144 45.6429 16.1001 45.5808 20.347Z" fill="white" fill-opacity="0.3"/>
<path d="M87.5817 8.08973C87.5967 8.76759 88.1372 9.31494 88.8144 9.33544C92.1593 9.43726 101.582 9.72563 105.793 9.87732C106.623 9.90739 107.258 9.14753 107.083 8.33505C107.068 8.30976 106.96 7.26836 105.897 7.19388C103.048 6.99572 94.4533 6.46203 88.7734 6.78935C87.607 6.857 87.5441 8.18334 87.5817 8.08973Z" fill="white" fill-opacity="0.3"/>
<path opacity="0.8" d="M73.9471 75.256C86.5385 75.256 96.7458 65.0487 96.7458 52.4574C96.7458 39.866 86.5385 29.6587 73.9471 29.6587C61.3557 29.6587 51.1484 39.866 51.1484 52.4574C51.1484 65.0487 61.3557 75.256 73.9471 75.256Z" fill="white" fill-opacity="0.3"/>
<path d="M74.0334 56.1688C78.9474 56.1688 82.931 52.1852 82.931 47.2712C82.931 42.3572 78.9474 38.3735 74.0334 38.3735C69.1194 38.3735 65.1357 42.3572 65.1357 47.2712C65.1357 52.1852 69.1194 56.1688 74.0334 56.1688Z" fill="#484959"/>
<path d="M60.5185 73.9906H88.8665C90.6042 73.9906 91.6456 71.7445 90.7101 70.0307C88.3021 65.6212 83.2645 59.1439 74.5398 59.4363C66.1307 59.7179 61.1465 65.5692 58.6407 69.7656C57.5768 71.547 58.6612 73.9906 60.5185 73.9906Z" fill="#484959"/>
<path d="M108.429 153.392H80.0708C79.1442 153.392 78.3857 152.633 78.3857 151.707V143.641C78.3857 142.714 79.1442 141.956 80.0708 141.956H108.429C109.356 141.956 110.114 142.714 110.114 143.641V151.707C110.114 152.633 109.356 153.392 108.429 153.392Z" fill="#484959"/>
<g opacity="0.8">
<g opacity="0.8">
<path d="M129.659 100.546H65.6846C65.1762 100.546 64.7607 100.13 64.7607 99.6223V95.1739C64.7607 94.6655 65.1769 94.25 65.6846 94.25H129.659C130.168 94.25 130.583 94.6662 130.583 95.1739V99.6223C130.584 100.13 130.168 100.546 129.659 100.546Z" fill="#484959" fill-opacity="0.5"/>
<path d="M56.3161 101.196C58.4242 101.196 60.1332 99.4867 60.1332 97.3786C60.1332 95.2705 58.4242 93.5615 56.3161 93.5615C54.208 93.5615 52.499 95.2705 52.499 97.3786C52.499 99.4867 54.208 101.196 56.3161 101.196Z" fill="#484959" fill-opacity="0.5"/>
</g>
<g opacity="0.8">
<path d="M129.657 112.362H65.6827C65.1743 112.362 64.7588 111.945 64.7588 111.438V106.989C64.7588 106.481 65.1749 106.065 65.6827 106.065H129.657C130.166 106.065 130.581 106.482 130.581 106.989V111.438C130.582 111.946 130.166 112.362 129.657 112.362Z" fill="#484959" fill-opacity="0.5"/>
<path d="M60.0857 109.807C60.4234 107.726 59.0102 105.765 56.9293 105.427C54.8484 105.09 52.8877 106.503 52.55 108.584C52.2123 110.665 53.6254 112.625 55.7063 112.963C57.7872 113.301 59.748 111.888 60.0857 109.807Z" fill="#484959" fill-opacity="0.5"/>
</g>
<g opacity="0.8">
<path d="M129.659 124.178H65.6846C65.1762 124.178 64.7607 123.762 64.7607 123.254V118.806C64.7607 118.297 65.1769 117.882 65.6846 117.882H129.659C130.168 117.882 130.583 118.298 130.583 118.806V123.254C130.584 123.763 130.168 124.178 129.659 124.178Z" fill="#484959" fill-opacity="0.5"/>
<path d="M56.3161 124.828C58.4242 124.828 60.1332 123.119 60.1332 121.01C60.1332 118.902 58.4242 117.193 56.3161 117.193C54.208 117.193 52.499 118.902 52.499 121.01C52.499 123.119 54.208 124.828 56.3161 124.828Z" fill="#484959" fill-opacity="0.5"/>
</g>
<path opacity="0.8" d="M129.659 135.993H65.6846C65.1762 135.993 64.7607 135.577 64.7607 135.07V130.621C64.7607 130.113 65.1769 129.697 65.6846 129.697H129.659C130.168 129.697 130.583 130.113 130.583 130.621V135.07C130.584 135.577 130.168 135.993 129.659 135.993Z" fill="#484959" fill-opacity="0.5"/>
<path opacity="0.8" d="M56.3161 136.644C58.4242 136.644 60.1332 134.935 60.1332 132.827C60.1332 130.719 58.4242 129.01 56.3161 129.01C54.208 129.01 52.499 130.719 52.499 132.827C52.499 134.935 54.208 136.644 56.3161 136.644Z" fill="#484959" fill-opacity="0.5"/>
</g>
<path opacity="0.8" d="M103.646 88.2406H53.4665C53.0155 88.2406 52.6465 87.8716 52.6465 87.4206V82.7643C52.6465 82.3133 53.0155 81.9443 53.4665 81.9443H103.647C104.098 81.9443 104.467 82.3133 104.467 82.7643V87.4206C104.466 87.8716 104.097 88.2406 103.646 88.2406Z" fill="#484959" fill-opacity="0.5"/>
<path d="M161.588 24.7566C161.453 22.6738 160.195 20.8282 158.309 19.933L133.88 8.33003C132.315 7.58725 130.5 7.58725 128.935 8.33003L104.506 19.933C102.62 20.8288 101.362 22.6738 101.227 24.7566C98.9358 60.1778 121.647 73.0832 129.092 76.3433C130.569 76.9898 132.246 76.9898 133.722 76.3433C141.168 73.0832 163.88 60.1778 161.588 24.7566Z" fill="#484959"/>
<path d="M124.018 13.2193C123.888 13.2193 123.763 13.1462 123.704 13.0205C123.621 12.8469 123.695 12.6392 123.869 12.5572L129.641 9.81563C129.814 9.73295 130.022 9.80675 130.104 9.98032C130.187 10.1539 130.113 10.3616 129.939 10.4436L124.167 13.1851C124.119 13.2084 124.068 13.2193 124.018 13.2193Z" fill="white" fill-opacity="0.3"/>
<path d="M103.095 32.3372C102.909 32.3372 102.754 32.1889 102.748 32.001C102.671 29.6968 102.711 27.2955 102.868 24.8622C102.965 23.3787 103.862 22.0585 105.211 21.4175L121.645 13.6125C121.818 13.5298 122.026 13.6036 122.108 13.7772C122.191 13.9508 122.117 14.1585 121.943 14.2405L105.509 22.0455C104.388 22.5778 103.643 23.6746 103.563 24.9066C103.407 27.3167 103.366 29.6961 103.443 31.977C103.45 32.1691 103.299 32.3303 103.107 32.3365C103.103 32.3372 103.099 32.3372 103.095 32.3372Z" fill="white" fill-opacity="0.3"/>
<path d="M155.679 26.1383C155.652 25.61 155.338 25.1385 154.86 24.9117L132.022 14.0652C131.632 13.88 131.18 13.88 130.79 14.0652L107.952 24.9117C107.474 25.1385 107.16 25.61 107.133 26.1383C106.458 39.3511 109.509 50.376 116.21 58.9204C121.319 65.4353 127.295 68.9264 130.797 70.5548C131.183 70.7345 131.627 70.7345 132.013 70.5548C135.515 68.9257 141.491 65.4346 146.6 58.9204C153.303 50.376 156.355 39.3511 155.679 26.1383Z" fill="white" fill-opacity="0.3"/>
<path d="M116.904 40.6217C118.792 39.4518 121.273 40.0627 122.402 41.9761L127.71 50.9749C128.242 51.8755 129.573 51.786 129.978 50.8218L141.922 22.4191C142.518 21.0019 144.616 21.4256 144.63 22.9624C144.709 31.5607 142.822 47.9525 129.419 61.9587C129.419 61.9587 121.78 59.1994 115.363 45.964C114.435 44.052 115.097 41.741 116.904 40.6217Z" fill="#484959"/>
<path d="M165.58 182.67C165.58 182.67 166.017 185.146 166.232 187.597C166.316 188.555 165.577 189.387 164.617 189.427C161.353 189.562 154.371 189.827 151.866 189.715C151.49 189.698 151.244 189.312 151.383 188.963C151.5 188.669 151.726 188.432 152.013 188.3L163.544 183L165.58 182.67Z" fill="#232D47"/>
<path d="M165.938 181.214L165.587 184.176C165.587 184.176 163.567 185.116 162.188 184.057L163.024 180.757L165.938 181.214Z" fill="url(#paint0_linear_322_50)"/>
<path d="M165.675 125.537C165.827 126.311 166.49 164.131 162.447 181.079C162.381 181.355 162.521 181.64 162.785 181.748C163.404 182.001 164.62 182.368 166.077 182.417C166.528 182.432 166.932 182.138 167.059 181.705C168.215 177.773 173.753 158.071 174.475 139.25C175.282 118.22 174.475 138.534 174.475 138.534L174.001 125.535L165.675 125.537Z" fill="#484959"/>
<path d="M178.848 183.961C178.848 183.961 179.544 185.211 180.218 188.533C180.339 189.133 179.92 189.707 179.311 189.767C178.233 189.873 176.574 190.009 175.245 190C174.632 189.996 174.154 189.462 174.228 188.854C174.375 187.642 174.834 185.653 176.251 184.102L178.848 183.961Z" fill="#232D47"/>
<path d="M179.458 180.151L178.636 184.63C178.636 184.63 177.825 185.234 176.219 184.796L176.61 179.977L179.458 180.151Z" fill="url(#paint1_linear_322_50)"/>
<path d="M181.675 126.698C184.982 146.652 180.958 176.016 179.601 181.763C179.518 182.115 179.234 182.384 178.878 182.443C178.272 182.544 177.275 182.626 176.292 182.34C175.953 182.242 175.715 181.936 175.701 181.584C175.52 176.937 175.847 148.413 172.767 137.139C172.611 136.568 172.262 136.07 171.779 135.727L165.799 131.476L165.341 124.604L181.675 126.698Z" fill="#484959"/>
<path d="M160.607 88.8882C170.516 88.7242 181.449 91.4897 181.449 91.4897C184.402 108.723 181.966 128.601 181.966 128.601C174.295 130.612 165.642 127.371 165.642 127.371C164.366 120.168 158.418 99.8953 158.418 99.8953C153.577 99.2947 149.589 97.898 146.305 96.0509C148.81 93.1468 149.991 89.452 150.504 87.2681C154.007 88.3573 157.551 88.9388 160.607 88.8882Z" fill="#232D47"/>
<path d="M131.341 74.2939C132.314 73.1186 133.546 73.6742 133.546 73.6742C135.004 79.8337 142.649 84.8275 150.504 87.2684C149.991 89.4523 148.81 93.1477 146.305 96.0512C133.269 88.7225 131.341 74.2939 131.341 74.2939Z" fill="url(#paint2_linear_322_50)"/>
<path d="M131.577 74.5937C131.475 74.9176 132.655 75.4103 133.349 74.086C133.373 73.4512 133.759 70.7322 133.38 70.2156C131.36 67.4618 127.444 64.0103 127.444 64.0103C126.782 64.6635 127.327 65.3045 127.327 65.3045L129.227 67.2834C128.83 68.0016 128.345 68.6077 128.118 69.4762C127.946 70.1343 128.051 70.8367 128.383 71.4353C128.717 72.036 129.172 72.817 129.601 73.4279C130.417 74.5848 131.577 74.5937 131.577 74.5937Z" fill="url(#paint3_linear_322_50)"/>
<path d="M130.059 68.5674L131.79 70.0352L132.333 71.4961L130.79 73.2086C130.79 73.2086 130.271 70.3092 129.885 69.6819C129.499 69.0539 129.7 68.7505 130.059 68.5674Z" fill="url(#paint4_linear_322_50)"/>
<path d="M177.648 101.086L181.449 91.4917C181.449 91.4917 190.704 97.7804 192.226 105.753C190.477 105.881 187.295 106.336 184.18 107.909C183.496 104.144 177.648 101.086 177.648 101.086Z" fill="#232D47"/>
<path d="M169.56 110.113C169.56 110.113 179.952 115.986 183.457 110.972C184.185 109.93 184.359 108.896 184.18 107.909C187.295 106.336 190.477 105.882 192.226 105.752C192.685 108.156 192.442 110.713 191.03 113.296C184.888 124.531 168.186 112.675 168.186 112.675L169.56 110.113Z" fill="url(#paint5_linear_322_50)"/>
<path d="M170.81 117.542L165.14 97.7375C165.075 97.5127 164.883 97.3487 164.651 97.3214C163.623 97.2018 160.646 96.8649 157.209 96.5745C153.068 96.2239 148.26 95.9403 145.386 96.1816C144.977 96.2157 144.73 96.6483 144.912 97.0152C146.546 100.321 153.267 113.768 156.633 118.173C156.745 118.319 156.918 118.404 157.101 118.403L170.258 118.28C170.642 118.278 170.916 117.91 170.81 117.542Z" fill="#131421"/>
<path d="M156.621 94.8575L152.509 94.1721C152.29 94.1359 152.111 94.345 152.18 94.5554L152.588 95.7888C152.623 95.8961 152.717 95.974 152.829 95.9891L156.785 96.5173C156.99 96.5446 157.159 96.3587 157.112 96.1578L156.86 95.0809C156.832 94.9654 156.738 94.8773 156.621 94.8575Z" fill="#484959"/>
<path d="M159.698 98.3382L159.36 96.5738C159.325 96.3968 159.179 96.2629 159 96.2451L150.696 95.4026C150.416 95.3739 150.192 95.6301 150.258 95.9035L150.786 98.1018C150.828 98.2774 150.981 98.4045 151.162 98.414L159.277 98.8227C159.541 98.8356 159.748 98.5978 159.698 98.3382Z" fill="#484959"/>
<path d="M169.439 112.757C169.439 112.757 170.229 109.509 169.91 108.356C169.592 107.204 168.974 105.722 166.916 106.052C164.858 106.381 162.431 107.248 162.431 107.248C162.431 107.248 162.553 108.749 164.117 108.265L163.147 109.015C163.147 109.015 163.286 110.217 164.607 109.575L163.705 110.57C163.705 110.57 164.272 111.558 165.245 110.924C166.216 110.291 166.682 113.149 169.439 112.757Z" fill="url(#paint6_linear_322_50)"/>
<path d="M170.643 80.8452L173.796 89.9629C173.848 90.1139 173.786 90.2813 173.646 90.3585C172.787 90.8335 169.69 92.207 165.959 89.8413C165.571 89.5946 165.306 89.1928 165.247 88.7363L164.227 80.8452H170.643Z" fill="url(#paint7_linear_322_50)"/>
<path d="M163.784 72.4014C163.784 72.4014 160.322 78.9183 160.766 81.5505C161.209 84.1827 165.5 83.9941 169.247 81.8559L171.864 74.819L163.784 72.4014Z" fill="url(#paint8_linear_322_50)"/>
<path d="M169.081 78.4005C168.929 78.3328 168.873 78.1469 168.964 78.0075C169.241 77.5839 169.761 76.7195 169.927 75.9623C169.927 75.9623 170.55 75.5639 168.343 75.0357C166.137 74.5075 162.847 73.6882 162.155 71.8097C161.481 69.9784 163.252 65.3741 166.079 69.0429C166.186 69.1823 166.397 69.1857 166.504 69.0457C166.968 68.4423 168.186 67.1911 169.877 67.9496C171.46 68.6596 171.638 69.8192 171.616 70.4041C171.61 70.5763 171.764 70.7096 171.933 70.6774C172.733 70.5251 174.653 70.3939 175.55 72.3639C176.288 73.9868 175.808 74.9052 175.371 75.3542C175.23 75.4997 175.292 75.7396 175.486 75.799C176.012 75.9603 176.691 76.4058 176.623 77.6379C176.529 79.3414 174.624 79.1911 174.083 79.1139C173.994 79.1009 173.904 79.1316 173.844 79.1979C173.379 79.7125 171.284 81.8971 169.017 82.1601C168.821 82.1827 168.669 81.9893 168.733 81.8021L169.714 78.9499C169.76 78.8173 169.696 78.6724 169.569 78.6157L169.081 78.4005Z" fill="#232D47"/>
<path d="M168.687 78.8053C168.687 78.8053 171.152 77.1141 171.332 78.5381C171.513 79.9622 169.113 80.6011 167.924 80.0702L168.687 78.8053Z" fill="url(#paint9_linear_322_50)"/>
<defs>
<linearGradient id="paint0_linear_322_50" x1="165.938" y1="182.658" x2="162.187" y2="182.658" gradientUnits="userSpaceOnUse">
<stop stop-color="#FF928E"/>
<stop offset="1" stop-color="#FEB3B1"/>
</linearGradient>
<linearGradient id="paint1_linear_322_50" x1="179.458" y1="182.466" x2="176.219" y2="182.466" gradientUnits="userSpaceOnUse">
<stop stop-color="#FF928E"/>
<stop offset="1" stop-color="#FEB3B1"/>
</linearGradient>
<linearGradient id="paint2_linear_322_50" x1="177.403" y1="84.7972" x2="158.24" y2="84.7972" gradientUnits="userSpaceOnUse">
<stop stop-color="#FF928E"/>
<stop offset="1" stop-color="#FEB3B1"/>
</linearGradient>
<linearGradient id="paint3_linear_322_50" x1="140.568" y1="54.5932" x2="131.756" y2="67.1153" gradientUnits="userSpaceOnUse">
<stop stop-color="#FF928E"/>
<stop offset="1" stop-color="#FEB3B1"/>
</linearGradient>
<linearGradient id="paint4_linear_322_50" x1="131.433" y1="71.8416" x2="126.068" y2="63.592" gradientUnits="userSpaceOnUse">
<stop stop-color="#FF928E"/>
<stop offset="1" stop-color="#FEB3B1"/>
</linearGradient>
<linearGradient id="paint5_linear_322_50" x1="192.437" y1="111.943" x2="168.185" y2="111.943" gradientUnits="userSpaceOnUse">
<stop stop-color="#FF928E"/>
<stop offset="1" stop-color="#FEB3B1"/>
</linearGradient>
<linearGradient id="paint6_linear_322_50" x1="169.986" y1="109.4" x2="162.43" y2="109.4" gradientUnits="userSpaceOnUse">
<stop stop-color="#FF928E"/>
<stop offset="1" stop-color="#FEB3B1"/>
</linearGradient>
<linearGradient id="paint7_linear_322_50" x1="166.344" y1="77.3953" x2="170.363" y2="92.5454" gradientUnits="userSpaceOnUse">
<stop stop-color="#FF928E"/>
<stop offset="1" stop-color="#FEB3B1"/>
</linearGradient>
<linearGradient id="paint8_linear_322_50" x1="174.109" y1="65.0399" x2="162.36" y2="83.7457" gradientUnits="userSpaceOnUse">
<stop stop-color="#FF928E"/>
<stop offset="1" stop-color="#FEB3B1"/>
</linearGradient>
<linearGradient id="paint9_linear_322_50" x1="177.419" y1="67.1184" x2="165.669" y2="85.8243" gradientUnits="userSpaceOnUse">
<stop stop-color="#FF928E"/>
<stop offset="1" stop-color="#FEB3B1"/>
</linearGradient>
</defs>
</svg>
