<svg width="176" height="176" viewBox="0 0 176 176" fill="none" xmlns="http://www.w3.org/2000/svg">
<circle cx="88" cy="88" r="88" fill="white"/>
<path d="M37.6626 125H143.148C147.008 125 149.33 121.993 148.319 118.276L131.559 56.3146C130.553 52.6016 128.891 50.3077 127.846 51.1881C126.801 52.0686 124.909 55.7196 123.622 59.3456L109.93 97.8541C108.642 101.481 105.782 101.878 103.544 98.7448L91.5436 81.946C89.3025 78.8139 85.6097 78.7653 83.2876 81.8379L70.4235 98.8561C68.1014 101.929 63.8949 102.333 61.0245 99.7609L56.8495 96.0164C53.9791 93.4449 49.9996 94.0047 47.9642 97.2693L34.3588 119.087C32.3234 122.352 33.7988 125 37.6626 125Z" fill="#131421"/>
<path d="M63.9352 71.5554C69.4222 71.5554 73.8704 67.1073 73.8704 61.6202C73.8704 56.1332 69.4222 51.6851 63.9352 51.6851C58.4481 51.6851 54 56.1332 54 61.6202C54 67.1073 58.4481 71.5554 63.9352 71.5554Z" fill="#232D47"/>
</svg>
