<svg width="18" height="18" viewBox="0 0 18 18" fill="none" xmlns="http://www.w3.org/2000/svg">
<path d="M17.6158 6.88033L9.74082 0.267144C9.31666 -0.0890477 8.68334 -0.0890483 8.25918 0.267144L0.384182 6.88033C0.14004 7.08536 0 7.38155 0 7.69289V16.9203C0 17.5166 0.50368 18 1.125 18H5.625C6.24632 18 6.75 17.5166 6.75 16.9203V12.6015C6.75 12.0052 7.25368 11.5218 7.875 11.5218H10.125C10.7463 11.5218 11.25 12.0052 11.25 12.6015V16.9203C11.25 17.5166 11.7537 18 12.375 18H16.875C17.4963 18 18 17.5166 18 16.9203V7.69289C18 7.38155 17.86 7.08536 17.6158 6.88033Z" fill="#131421"/>
</svg>
